<svg xmlns="http://www.w3.org/2000/svg" xmlns:xlink="http://www.w3.org/1999/xlink" viewBox="0 0 98 38" shape-rendering="geometricPrecision" text-rendering="geometricPrecision"><g fill="#FFFFFF" transform="matrix(1,0,0,1,-2,-5)"><g transform="matrix(0.9375, 0, 0, 0.9375, -1, 40.1)"><path d="M12.95 -27L14.35 -26.95Q15.1 -26.9 15.95 -26.7L15.95 -21.75Q15.05 -22 13.9 -22L13.55 -22Q12.2 -21.95 11.05 -21.45Q9.9 -20.95 9.1 -20Q8.35 -19.1 8.35 -17.8L8.35 0L2.75 0L2.75 -17.9Q2.75 -20.75 4.1 -22.75Q5.5 -24.75 7.65 -25.9Q8.25 -26.2 9.05 -26.4Q9.85 -26.65 10.6 -26.75L12 -26.95L12.95 -27" /></g><g transform="matrix(0.9375, 0, 0, 0.9375, 15.6, 40.1)"><path d="M12.65 0.55Q10.75 0.55 8.85 0Q6.95 -0.6 5.45 -1.75Q3.95 -2.9 3.05 -4.55Q2.2 -6.25 2.2 -8.6L2.2 -17.9Q2.2 -20.2 3.05 -21.9Q3.95 -23.65 5.45 -24.75Q6.95 -25.9 8.85 -26.45Q10.75 -27 12.65 -27Q14.55 -27 16.4 -26.45Q18.3 -25.9 19.75 -24.75Q21.2 -23.65 22.1 -21.9Q23 -20.2 23 -17.9L23 -10.6L7.85 -10.6L7.85 -8.8Q7.85 -7.85 8.25 -7.15Q8.7 -6.5 9.3 -5.95Q9.95 -5.45 10.8 -5.2Q11.65 -4.95 12.55 -4.95Q14.05 -4.95 15.4 -5.5Q16.75 -6.1 17.5 -7.6L22.2 -4.9Q21.45 -3.5 20.35 -2.5Q19.25 -1.5 17.95 -0.8Q16.7 -0.15 15.3 0.2Q13.95 0.55 12.65 0.55M17.6 -17.8Q17.6 -18.7 17.15 -19.4Q16.75 -20.1 16.05 -20.55Q15.4 -21.05 14.5 -21.3Q13.65 -21.55 12.7 -21.55Q11.8 -21.55 10.9 -21.3Q10 -21.05 9.3 -20.55Q8.65 -20.1 8.2 -19.35Q7.8 -18.65 7.85 -17.7L7.85 -15.3L17.6 -15.3L17.6 -17.8" /></g><g transform="matrix(0.9375, 0, 0, 0.9375, 39.9, 40.1)"><path d="M13.25 0.55L12.85 0.55Q10.85 0.55 9 0.05Q7.15 -0.45 5.65 -1.45Q4.2 -2.5 3.3 -4.2Q2.4 -5.9 2.2 -8.35L2.2 -17.85Q2.2 -20.05 3.05 -21.75Q3.95 -23.5 5.4 -24.65Q6.9 -25.8 8.8 -26.4Q10.7 -27 12.6 -27Q15.25 -27 17.5 -25.95L17.5 -36.3L23.1 -36.3L23.1 -1.5Q20.8 -0.6 18.1 0Q15.65 0.55 13.25 0.55M13.45 -22.2Q11.4 -22.2 9.7 -21.2Q8 -20.2 7.8 -18.1L7.8 -8.35Q7.85 -7.2 8.4 -6.4Q8.95 -5.6 9.7 -5.1Q10.5 -4.65 11.5 -4.4Q12.55 -4.15 13.65 -4.15Q15.9 -4.15 17.5 -4.9L17.5 -21.1Q15.8 -22.2 13.45 -22.2" /></g><g transform="matrix(0.9375, 0, 0, 0.9375, 65.3, 40.1)"><path d="M16.7 -18.1Q16.7 -19.05 16.25 -19.8Q15.8 -20.55 15 -21.05Q14.25 -21.55 13.25 -21.75Q12.25 -22 11.2 -22Q9.6 -22 8.1 -21.45Q6.65 -20.9 5.6 -19.8L2.45 -23.05Q4.6 -25.45 6.95 -26.2Q9.35 -27 11.9 -27Q13.85 -27 15.7 -26.45Q17.6 -25.95 19.05 -24.85Q20.55 -23.8 21.45 -22.15Q22.35 -20.5 22.35 -18.25L22.35 -1.25Q20.5 -0.55 17.85 0Q15.25 0.55 12.3 0.55Q10.2 0.55 8.25 0.15Q6.3 -0.25 4.8 -1.15Q3.35 -2.05 2.4 -3.6Q1.5 -5.2 1.5 -7.55Q1.5 -9.75 2.35 -11.35Q3.2 -12.95 4.55 -14Q5.95 -15.05 7.7 -15.55Q9.5 -16.05 11.35 -16.05Q12.8 -16.05 14.15 -15.8Q15.55 -15.55 16.7 -15.05L16.7 -18.1M12.15 -11.55Q9.7 -11.55 8.35 -10.45Q7.05 -9.35 7.05 -7.6Q7.05 -6.7 7.45 -6Q7.85 -5.35 8.55 -4.95Q9.25 -4.55 10.1 -4.35Q11 -4.15 11.95 -4.15Q13.35 -4.15 14.55 -4.3Q15.8 -4.5 16.7 -4.75L16.7 -10.6Q15.85 -11.05 14.65 -11.3Q13.45 -11.55 12.15 -11.55" /></g><g transform="matrix(0.9375, 0, 0, 0.9375, 89.75, 40.1)"><path d="M2.05 -3.4Q2.05 -5 3.1 -6.05Q4.15 -7.15 5.75 -7.15Q7.35 -7.15 8.4 -6.05Q9.5 -5 9.5 -3.4Q9.5 -1.8 8.4 -0.7Q7.35 0.35 5.75 0.35Q4.15 0.35 3.1 -0.7Q2.05 -1.8 2.05 -3.4" /></g></g></svg>