<svg xmlns="http://www.w3.org/2000/svg" xmlns:xlink="http://www.w3.org/1999/xlink" viewBox="0 0 260 360" shape-rendering="geometricPrecision" text-rendering="geometricPrecision" class="img-fluid"><defs><filter id="FL100_MC1" x="-0.569286" y="-0.569286" width="2.31857" height="2.42537"><feComponentTransfer in="SourceGraphic"><feFuncR type="linear" slope="0" /><feFuncG type="linear" slope="0" /><feFuncB type="linear" slope="0" /></feComponentTransfer><feGaussianBlur stdDeviation="6 6" /><feOffset dx="0" dy="4" /><feComponentTransfer result="1"><feFuncR type="linear" Ue="0" intercept="0" /><feFuncG type="linear" Ue="0" intercept="0.0941176" /><feFuncB type="linear" Ue="0" intercept="0.192157" /><feFuncA type="linear" xh="0" slope="0.148438" /></feComponentTransfer><feComposite result="2" in="SourceGraphic" in2="1" operator="over" /></filter><linearGradient id="LG100_MC1" spreadMethod="pad" x1="-819.2" y1="0" x2="819.2" y2="0" gradientUnits="userSpaceOnUse" gradientTransform="matrix(0.0314331, 0.0544437, -0.0544437, 0.0314331, 0, 0)"><stop offset="0.5" stop-color="#fff" /><stop offset="1" stop-color="#cddfff" /></linearGradient><linearGradient id="LG100_CD4485" x1="468.80545" y1="121.34766" x2="469.16412" y2="38.70599" spreadMethod="pad" gradientUnits="userSpaceOnUse"><stop offset="0" stop-color="#097ada" /><stop offset="1" stop-color="#0a99f7" /></linearGradient><linearGradient id="LG100_CC4155" y2="253.9286" x2="371.47604" y1="473.93784" x1="371.47604" spreadMethod="pad" gradientUnits="userSpaceOnUse" gradientTransform="matrix(0.26231459,0,0,0.26155514,-44.879062,141.03167)"><stop offset="0" stop-color="#03a05e" /><stop offset="1" stop-color="#11dd96" /></linearGradient><linearGradient id="LG100_CC4216" x1="21.978271" y1="263.04718" x2="22.373133" y2="150.15643" spreadMethod="pad" gradientUnits="userSpaceOnUse"><stop offset="0" stop-color="#4f4f4f" /><stop offset="1" stop-color="#808080" /></linearGradient><linearGradient id="LG100_KR4990" gradientTransform="matrix(-2.74797e-009, 0.0628662, -0.0628662, -2.74797e-009, 0, 0)" spreadMethod="pad" x1="-819.2" y1="0" x2="819.2" y2="0" gradientUnits="userSpaceOnUse"><stop offset="0" stop-color="#59d16f" /><stop offset="1" stop-color="#298863" /></linearGradient><linearGradient id="LG100_SP4284" gradientTransform="matrix(1.0364188,0,0,1.0364188,-320.8861,-512.02542)" spreadMethod="pad" x1="332.77661" y1="539.58612" x2="333.62369" y2="502.23242" gradientUnits="userSpaceOnUse"><stop offset="0.5" stop-color="#e44511" /><stop offset="1" stop-color="#fa7b4c" /></linearGradient><path id="mac_rect1" fill="url(#LG100_MC1)" stroke="#dce7fa" stroke-width="1" stroke-linecap="round" stroke-linejoin="round" stroke-miterlimit="3" d="M51.5 -31L51.5 31Q51.5 51 31.5 51L-31.5 51Q-51.5 51 -51.5 31L-51.5 -31Q-51.5 -51 -31.5 -51L31.5 -51Q51.5 -51 51.5 -31" /></defs><g><g id="mac_call1" class="mac_path" opacity="0"><g transform="matrix(0.68,0,0,0.68,205,124)"><use xlink:href="#mac_rect1" /></g><g transform="matrix(0.24,0,0,0.24,93,114)"><rect fill="#0977da" width="184.12398" height="183.90648" x="376.79791" y="-53.55928" transform="matrix(0.99999058,0.00434018,-0.00434018,0.99999058,0,0)" ry="11.3587" /><path fill="#075fad" d="m 377.99004,39.711723 183.00252,0.794269 4.69943,70.610628 c 0,0 2.18806,11.54391 -10.98127,11.52293 l -170.4585,-0.26137 c -14.5271,0.19388 -12.26442,-12.18913 -12.26442,-12.18913 z" /><path fill="url(#LG100_CD4485)" d="m 376.75658,38.304923 184.24209,0.799648 4.69943,70.610639 c 0,0 2.18806,11.54391 -10.98127,11.52293 l -170.45851,-0.26137 c -14.5271,0.19388 -12.26442,-12.18913 -12.26442,-12.18913 z" /><g><path fill="#fff" d="m 463.01357,75.106071 -48.5251,0 0,-10.239242 q 21.81403,-21.925334 27.93532,-28.603101 5.45351,-6.121286 7.34554,-9.237577 1.89204,-3.227587 1.89204,-7.902024 0,-4.785733 -3.78407,-8.458504 -3.78407,-3.6727721 -10.12795,-3.6727721 -5.78739,0 -9.34887,3.4501791 -3.56148,3.338884 -4.56314,7.234248 l -9.34887,-3.784068 q 1.89203,-6.0099902 7.90202,-11.3522036 6.00999,-5.3422134 15.58146,-5.3422134 10.57313,0 17.36219,6.4551745 6.78906,6.4551745 6.78906,15.4701595 0,11.129611 -12.13127,23.817368 l -22.25923,22.370519 35.28087,0 0,9.794057 z" /><path fill="#fff" d="m 496.79542,76.886809 q -7.67943,0 -14.91368,-4.785733 -7.23425,-4.785732 -10.01665,-14.245902 l 9.34887,-3.895364 q 1.78074,6.232582 5.8987,9.682762 4.11795,3.450179 9.68276,3.450179 6.23258,0 10.68442,-3.895364 4.56315,-3.895363 4.56315,-9.682761 0,-5.676102 -4.67444,-9.571466 -4.56314,-3.895364 -11.01832,-3.895364 l -6.56647,0 0,-9.571465 5.7874,0 q 6.00999,0 9.90535,-3.338884 4.00666,-3.338883 4.00666,-8.903689 0,-5.230917 -3.89536,-8.2359121 -3.78407,-3.004995 -9.46017,-3.004995 -9.79406,0 -13.24424,9.9053541 l -9.46017,-4.00666 q 2.22593,-6.1212863 7.90203,-10.9070192 5.6761,-4.7857328 14.80238,-4.7857328 10.23924,0 17.02831,6.0099901 6.78906,5.8986939 6.78906,15.0249749 0,11.018315 -10.23924,16.360529 l 0,0.445184 q 5.5648,2.337218 9.12628,7.122951 3.67277,4.785733 3.67277,11.352204 0,10.127946 -7.45684,16.805713 -7.45684,6.56647 -18.25256,6.56647 z" /></g><g fill="#fff"><path d="m 452.68377,95.697441 -1.43701,0 0,-9.511593 -0.0599,0 -3.93465,9.426057 -1.30015,0 -3.93465,-9.426057 -0.0599,0 0,9.511593 -1.437,0 0,-12.342831 1.7877,0 4.25969,10.298523 0.0684,0 4.25969,-10.298523 1.7877,0 0,12.342831 z" /><path d="m 458.7055,95.782977 q -0.97511,0 -1.76204,-0.33359 -0.77838,-0.33359 -1.33436,-0.940895 -0.55599,-0.615859 -0.85536,-1.479771 -0.29938,-0.872466 -0.29938,-1.941665 0,-1.077753 0.29938,-1.941665 0.29937,-0.872467 0.85536,-1.479771 0.55598,-0.615859 1.33436,-0.940895 0.78693,-0.33359 1.76204,-0.33359 0.9751,0 1.75348,0.33359 0.78693,0.325036 1.34292,0.940895 0.55598,0.607304 0.85535,1.479771 0.29938,0.863912 0.29938,1.941665 0,1.069199 -0.29938,1.941665 -0.29937,0.863912 -0.85535,1.479771 -0.55599,0.607305 -1.34292,0.940895 -0.77838,0.33359 -1.75348,0.33359 z m 0,-1.325807 q 0.64151,0 1.14618,-0.230946 0.51321,-0.230947 0.86391,-0.658627 0.35925,-0.436233 0.53888,-1.060645 0.18817,-0.624412 0.18817,-1.419896 0,-0.795484 -0.18817,-1.419896 -0.17963,-0.624412 -0.53888,-1.060646 -0.3507,-0.436233 -0.86391,-0.658626 -0.50467,-0.230947 -1.14618,-0.230947 -0.64152,0 -1.15474,0.230947 -0.50466,0.230947 -0.86391,0.66718 -0.3507,0.42768 -0.53888,1.052092 -0.17962,0.624412 -0.17962,1.419896 0,0.795484 0.18818,1.419896 0.18817,0.624412 0.53887,1.060645 0.3507,0.42768 0.85536,0.658627 0.51322,0.230946 1.15474,0.230946 z" /><path d="m 464.52194,86.47667 1.40279,0 0,1.496879 0.0342,0 q 0.88102,-1.582414 3.01086,-1.582414 0.76127,0 1.36858,0.2395 0.6073,0.230947 1.03498,0.675734 0.42768,0.436233 0.65008,1.069199 0.23094,0.624412 0.23094,1.411342 l 0,5.910531 -1.48832,0 0,-5.653923 q 0,-1.137628 -0.57309,-1.727826 -0.57309,-0.598751 -1.66795,-0.598751 -0.56454,0 -1.03499,0.188179 -0.46189,0.188179 -0.79548,0.530323 -0.32504,0.342143 -0.50466,0.829698 -0.17963,0.487555 -0.17963,1.077752 l 0,5.354548 -1.48832,0 0,-9.220771 z" /><path d="m 477.73723,95.782977 q -0.87246,0 -1.59952,-0.33359 -0.7185,-0.342144 -1.24882,-0.958002 -0.52177,-0.615859 -0.81259,-1.479771 -0.29082,-0.872467 -0.29082,-1.924558 0,-1.052092 0.29082,-1.916005 0.29082,-0.872466 0.80404,-1.488324 0.52176,-0.615859 1.24027,-0.949449 0.7185,-0.342143 1.58241,-0.342143 0.99222,0 1.75349,0.410572 0.76127,0.410572 1.18895,1.171842 l 0.0342,0 0,-5.157815 1.48832,0 0,12.881707 -1.41989,0 0,-1.556753 -0.0257,0 q -0.45334,0.804037 -1.21461,1.223163 -0.76127,0.419126 -1.7706,0.419126 z m 0.26517,-8.066036 q -0.60731,0 -1.10342,0.239501 -0.49611,0.2395 -0.85536,0.684287 -0.35069,0.436233 -0.54743,1.060645 -0.18818,0.624412 -0.18818,1.385682 0,0.769823 0.18818,1.394235 0.19674,0.615859 0.54743,1.060645 0.35925,0.436233 0.85536,0.675734 0.49611,0.2395 1.10342,0.2395 0.59875,0 1.09486,-0.2395 0.4961,-0.248054 0.8468,-0.692841 0.3507,-0.444787 0.54743,-1.060645 0.19673,-0.624412 0.19673,-1.377128 0,-0.752716 -0.19673,-1.368575 -0.19673,-0.624412 -0.54743,-1.069199 -0.3507,-0.444786 -0.8468,-0.684287 -0.49611,-0.248054 -1.09486,-0.248054 z" /><path d="m 487.27449,94.491385 q 0.56453,0 1.04353,-0.171072 0.47901,-0.171072 0.82115,-0.479001 0.3507,-0.307929 0.54743,-0.727055 0.19673,-0.42768 0.19673,-0.923788 l 0,-0.744162 -2.41211,0.153964 q -1.04354,0.06843 -1.57386,0.444787 -0.53032,0.367804 -0.53032,1.034984 0,0.325037 0.1283,0.581645 0.13686,0.256607 0.38491,0.444786 0.25661,0.188179 0.60731,0.290822 0.35069,0.09409 0.78693,0.09409 z m -0.31649,1.291592 q -0.70139,0 -1.27448,-0.188179 -0.57309,-0.196733 -0.98366,-0.54743 -0.41058,-0.359251 -0.63297,-0.855359 -0.22239,-0.504662 -0.22239,-1.12052 0,-1.197503 0.88102,-1.873237 0.88102,-0.675733 2.57463,-0.778376 l 2.58318,-0.153965 0,-0.769823 q 0,-0.863913 -0.54743,-1.317253 -0.53887,-0.461894 -1.5653,-0.461894 -0.40202,0 -0.74417,0.102643 -0.34214,0.09409 -0.61586,0.282269 -0.26516,0.179625 -0.44478,0.444786 -0.17107,0.265162 -0.2395,0.590198 l -1.42845,0 q 0.0171,-0.581644 0.29082,-1.086306 0.27371,-0.504662 0.74416,-0.872466 0.47045,-0.367805 1.09486,-0.573091 0.63297,-0.213839 1.36002,-0.213839 0.82115,0 1.47977,0.213839 0.65863,0.205286 1.12908,0.598752 0.47044,0.384911 0.7185,0.940895 0.25661,0.547429 0.25661,1.223163 l 0,6.329657 -1.41135,0 0,-1.599521 -0.0342,0 q -0.19673,0.384911 -0.50466,0.701394 -0.30793,0.307929 -0.69284,0.530323 -0.38491,0.213839 -0.83825,0.33359 -0.44479,0.11975 -0.93235,0.11975 z" /><path d="m 494.15157,99.041895 q -0.14541,0 -0.33359,-0.01711 -0.17962,-0.01711 -0.31648,-0.04277 l 0,-1.257378 q 0.1283,0.02566 0.29082,0.03421 0.17108,0.01711 0.31649,0.01711 0.31648,0 0.56453,-0.08554 0.25661,-0.07698 0.4619,-0.256608 0.20528,-0.179625 0.35925,-0.470447 0.16252,-0.290823 0.30793,-0.709949 l 0.17962,-0.547429 -3.41288,-9.229325 1.58241,0 2.58319,7.706786 0.0342,0 2.58319,-7.706786 1.5653,0 -3.60961,9.785308 q -0.29938,0.804038 -0.59875,1.33436 -0.29938,0.538876 -0.66718,0.855359 -0.35925,0.325037 -0.82115,0.453341 -0.45334,0.136857 -1.0692,0.136857 z" /></g></g></g><g id="mac_stock1" class="mac_path" opacity="0"><g transform="matrix(0.68,0,0,0.68,192,230)"><use xlink:href="#mac_rect1" /></g><g transform="matrix(3.4,0,0,3.4,164,202)"><g><path fill="#ad0833" d="m8.466 15.96 6.88-3.889-.047-7.314L8.466 8.5z" /><path fill="#c92b0e" d="m8.467 15.975-6.88-3.888.047-7.315 6.833 3.744z" /><path fill="#d57214" d="M1.614 4.792 8.5.958l6.824 3.836-6.861 3.759z" /></g><g transform="translate(8.937 -115.54) scale(.44445)"><circle cx="8.466" cy="288.53" r="7.144" fill="#a0aac2" /><circle cx="8.467" cy="288.53" r="3.44" opacity=".15" /><g fill="#fff"><path d="M8.467 285.62a2.91 2.91 0 0 0-2.91 2.91 2.91 2.91 0 0 0 2.91 2.91 2.91 2.91 0 0 0 2.91-2.91 2.91 2.91 0 0 0-2.91-2.91zm0 1.323a1.587 1.587 0 0 1 1.587 1.587 1.587 1.587 0 0 1-1.587 1.588 1.587 1.587 0 0 1-1.588-1.588 1.587 1.587 0 0 1 1.588-1.587z" /><path d="M7.938 284.43h1.058v1.852H7.938zm0 6.35h1.058v1.852H7.938zm4.63-2.778v1.058h-1.852v-1.058zm-6.35 0v1.058H4.366v-1.058zm5.522 3.056-.747.747-1.31-1.31.748-.747zm-4.49-4.49-.747.747-1.31-1.31.748-.747zm-1.309 5.237-.748-.748 1.31-1.31.748.749zm4.49-4.49-.748-.748 1.31-1.31.748.749z" /></g></g></g></g><g id="mac_comm1" class="mac_path" opacity="0"><g transform="matrix(0.68,0,0,0.68,110,290)"><use xlink:href="#mac_rect1" /></g><g transform="matrix(0.92,0,0,0.92,81,260)"><rect width="46" height="52" x="8" y="-58" fill="#1b6cdd" rx="4.978" ry="4.978" transform="scale(1 -1)" /><path fill="#83c906" d="M53.904 10.016c.064.318.098.643.098.983v16.018a1.992 1.992 0 0 0 1.992-2V12.02a1.992 1.992 0 0 0-1.996-2z" /><path fill="#df4023" d="M54.002 23.016v17.001a1.992 1.992 0 0 0 1.996-2V25.017a1.992 1.992 0 0 0-1.996-2z" /><path fill="#f6bd0c" d="M54.002 37.016v15.999a1.996 1.996 0 0 0 1.996-2.003v-12a1.992 1.992 0 0 0-1.996-1.996z" /><circle cx="31.002" cy="32.016" r="16" fill="#fff" opacity=".2" /><path fill="#fff" d="M31.002 22.016a5 5 0 1 0 0 10 5 5 0 0 0 0-10zm0 2a3 3 0 1 1 0 6 3 3 0 0 1 0-6zm-5.182 10a2.813 2.813 0 0 0-2.818 2.818v5.182h2v-6h12v6h2v-5.182a2.813 2.813 0 0 0-2.818-2.818z" /></g></g><g id="mac_calc1" class="mac_path" opacity="0"><g transform="matrix(0.68,0,0,0.68,50,210)"><use xlink:href="#mac_rect1" /></g><g transform="matrix(0.4,0,0,0.4,40,127)"><path fill="#232323" d="m -23.525211,154.66937 47.828584,0.0363 -0.0419,55.16792 -55.437374,-0.0422 0.0365,-48.05392 c 0.006,-7.63847 7.21097,-7.10853 7.61419,-7.10821 z" /><g transform="matrix(1.0014519,3.7631829e-5,3.7631796e-5,0.95188387,0.03569035,12.795234)"><g fill="url(#LG100_CC4216)" transform="translate(8.8153341e-4,-1.1611569)"><path d="m -23.87675,265.80577 47.759246,0.0362 0.044,-57.95657 -55.356996,-0.042 -0.03833,50.48297 c -0.0061,8.02458 7.189449,7.47907 7.59208,7.47936 z" /><path d="m 71.568966,150.27986 -47.759241,-0.0362 -0.044,57.95657 55.356991,0.042 0.03835,-50.48297 c 0.0062,-8.02458 -7.189452,-7.47907 -7.592072,-7.47936 z" /><path d="m 71.368015,265.8766 -47.75924,-0.0363 0.044,-57.95657 55.35699,0.0421 -0.0383,50.48297 c -0.006,8.02458 -7.2008,7.46814 -7.60343,7.46782 z" /></g></g><ellipse fill="url(#LG100_CC4155)" cy="236.94432" cx="51.669277" rx="32.309681" ry="32.216141" /><g transform="matrix(0.26419577,2.0057633e-4,-1.9999046e-4,0.26342488,-41.138552,144.43714)"><path fill="#fff" d="m 152.4223,95.407954 0,39.272776 39.12288,0 0,17.68774 -39.12288,0 0,39.27278 -17.83764,0 0,-39.27278 -39.122882,0 0,-17.68774 39.122882,0 0,-39.272776 17.83764,0 z" /></g><g transform="matrix(0.21864388,1.6599352e-4,-2.4165613e-4,0.31830636,-49.449139,142.57978)"><path fill="#fff" d="m 403.56007,115.78436 113.38303,0 0,16.00263 -113.38303,0 0,-16.00263 z" /></g><g transform="matrix(0.26419577,2.0057633e-4,-1.9999046e-4,0.26342488,-41.412076,139.71007)"><path fill="#fff" d="m 188.64264,336.03888 -32.52745,32.52745 32.52745,32.37756 -12.59127,12.59127 -32.52745,-32.37756 -32.52746,32.37756 -12.591269,-12.59127 32.527459,-32.37756 -32.527459,-32.52745 12.591269,-12.59127 32.52746,32.52745 32.52745,-32.52745 12.59127,12.59127 z" /></g><g transform="matrix(0.26419577,2.0057633e-4,-1.9999046e-4,0.26342488,-45.687111,140.82366)"><path fill="#fff" d="m 320.01727,340.77341 96.0834,0 0,17.61279 -96.0834,0 0,-17.61279 z m 0,34.10136 96.0834,0 0,17.76269 -96.0834,0 0,-17.76269 z" /></g></g></g><g id="mac_krull1" class="mac_path" opacity="0"><g transform="matrix(0.68,0,0,0.68,136,52)"><use xlink:href="#mac_rect1" /></g><g transform="matrix(0.86,0,0,0.86,108,25)"><rect fill="url(#LG100_KR4990)" width="48" height="56" x="8" y="4" rx="7" ry="7" /><path fill="#e0f2f1" d="M15.989 51h26.943v2H15.989z" /><rect width="45" height="10" x="15" y="39" fill="#ffb74d" rx="2" ry="2" /><g fill="#e0f2f1" transform="translate(0 -1058.5)"><rect width="8.981" height="2" x="15.989" y="1070.5" ry="0" /><path d="M15.989 1077.5h30.934v2H15.989zM15.989 1081.5h26.943v2H15.989zM15.989 1085.5h29.936v2H15.989zM15.989 1089.5H38.94v2H15.989zM15.989 1093.5h27.94v2h-27.94z" /></g><path fill="#f57c00" d="M17.985 44.9v3h.998v-3zm5.987 0v3h.998v-3zm5.987 0v3h.998v-3zm5.988 0v3h.997v-3zm5.987 0v3h.998v-3zm5.987 0v3h.998v-3zm5.987 0v3h.998v-3zm-32.93 1v2h.998v-2zm5.987 0v2h.998v-2zm5.988 0v2h.997v-2zm5.987 0v2h.998v-2zm5.987 0v2h.998v-2zm5.987 0v2h.998v-2z" /><path fill="#37474f" d="M46.923 54v-8h-1.996l2.994-4 2.994 4h-1.996v8z" /><path fill="#37474f" d="M47.921 57a1.996 2 0 0 1-1.996-2 1.996 2 0 0 1 1.996-2 1.996 2 0 0 1 1.996 2 1.996 2 0 0 1-1.996 2zm0-1a.998 1 0 0 0 .998-1 .998 1 0 0 0-.998-1 .998 1 0 0 0-.998 1 .998 1 0 0 0 .998 1z" /></g></g><g id="mac_shop1" class="mac_path" opacity="0"><g transform="matrix(0.68,0,0,0.68,62,110)"><use xlink:href="#mac_rect1" /></g><g transform="matrix(1,0,0,1,38,86)"><rect fill="#d83f0c" height="9.1204786" width="41.954231" x="3.0297704" y="1.853611" /><polygon fill="#ff8f68" points="12,8 4,0 4,20 12,20 " transform="matrix(0.45359826,0,0,0.36286428,1.2153832,1.7759578)" /><polygon fill="#ff8f68" points="12,8 4,0 4,20 12,20 " transform="matrix(-0.44594015,0,0,0.35714287,46.769011,1.8692739)" /><path fill="url(#LG100_SP4284)" d="M 46.80811,44.051588 C 46.80811,45.679598 45.582772,47 44.071965,47 L 3.9418265,47 C 2.4310199,47 1.205682,45.679598 1.205682,44.051588 l 0,-35.8723085 45.602428,0 0,35.8723085 z" /><path fill="#ff7d50" d="m 1.2,8.1882965 5.4722891,-3.5220388 0,3.5220388 z" /><circle r="2.0903699" cy="13.565169" cx="33.675564" opacity="0.3" /><circle r="2.0903699" cy="13.815694" cx="14.034451" opacity="0.3" /><path fill="none" stroke="#e6e6e6" stroke-width="2.50844646" stroke-linecap="round" stroke-miterlimit="10" d="M 13.798114,12.38102 C 13.746766,6.8401018 18.197121,2.3060285 23.738459,2.2546605 29.279796,2.2033134 33.813452,6.6536682 33.864817,12.195014" /><path fill="#000000" opacity="0.07843137" d="M 29.494141 18.777344 L 29.494141 18.779297 C 29.411841 18.773297 29.3299 18.774497 29.25 18.779297 C 28.717269 18.816897 28.22481 19.111855 27.9375 19.609375 C 27.554603 20.274147 27.683071 21.089322 28.201172 21.607422 L 29.357422 22.763672 C 29.232685 22.762912 29.108846 22.749966 28.984375 22.728516 L 27.070312 20.814453 C 26.454712 20.645433 25.797536 20.541016 25.128906 20.541016 C 23.979356 20.541016 22.905626 20.812585 21.941406 21.291016 L 23.095703 23.376953 L 29.541016 29.822266 C 29.503526 29.902416 29.465505 29.980887 29.423828 30.058594 L 21.125 21.759766 C 19.668499 22.732146 18.597184 24.224497 18.146484 25.966797 L 18.400391 26.222656 C 18.763644 26.628261 18.982654 27.153387 18.988281 27.746094 L 17.841797 26.599609 C 17.539692 26.297505 17.120631 26.111329 16.658203 26.111328 C 15.738071 26.111332 14.999997 26.8494 15 27.769531 C 14.999994 28.228367 15.18407 28.645007 15.484375 28.945312 L 33.539062 47 L 44.072266 47 C 45.583073 47 46.808594 45.678791 46.808594 44.050781 L 46.808594 35.5 L 30.556641 19.248047 C 30.457551 19.148957 30.343803 19.061556 30.216797 18.988281 C 29.992688 18.85938 29.740971 18.792795 29.494141 18.777344 z " /><g transform="matrix(1.2,0,0,1.2,-450,-624)"><path fill="#fff" opacity="0.85" d="m 391.84218,540.91306 c -0.42081,-0.32855 -0.94932,-0.52413 -1.52328,-0.52413 -1.35134,0 -2.45088,1.08433 -2.48542,2.43509 -1.39488,0.52618 -2.38765,1.87965 -2.38765,3.46634 0,1.87433 1.38537,3.42322 3.18243,3.66739 l 0,0 0,0.0335 12.72968,0 0,-0.006 c 1.77487,-0.10355 3.18242,-1.58396 3.18242,-3.39503 0,-1.74659 -1.30911,-3.18565 -2.9943,-3.37879 0.007,-0.10647 0.0108,-0.21389 0.0108,-0.32212 0,-2.70685 -2.27081,-4.90117 -5.07199,-4.90117 -2.07343,0 -3.85626,1.20226 -4.64268,2.9247 z" /></g></g></g><g id="mac_logo1" class="mac_path" opacity="0"><g transform="matrix(1,0,0,1,130,176)" style="filter:url(#FL100_MC1);"><path fill="url(#LG100_MC1)" stroke="#cfd1da" stroke-width="1" stroke-linecap="round" stroke-linejoin="round" stroke-miterlimit="3" d="M51.5 -31L51.5 31Q51.5 51 31.5 51L-31.5 51Q-51.5 51 -51.5 31L-51.5 -31Q-51.5 -51 -31.5 -51L31.5 -51Q51.5 -51 51.5 -31" /></g><g transform="matrix(0.44,0,0,0.44,122,160)"><g transform="translate(-62, -40)"><path fill="#00a4ef" d="M142.05 45.9L85.1 78.75L75.1 78.75L18.25 45.9L18.75 28.45L75.65 0L84.55 0L141.5 28.45L142.05 45.9" /></g><g transform="translate(-62, -40)"><path fill="#ef4414" d="M15.65 50.95L71.95 83.4L77.25 92.45L77.25 154.1L61.05 162.85L8.2 128L3.55 119.9L0 60.6L15.65 50.95" /></g><g transform="translate(-62, -40)"><path fill="#fcc800" d="M88.15 83.4L144.55 50.95L160.1 60.6L156.6 119.9L151.95 128L99.2 162.85L82.9 154.1L82.9 92.45L88.15 83.4" /></g></g></g></g></svg>