<svg xmlns="http://www.w3.org/2000/svg" xmlns:xlink="http://www.w3.org/1999/xlink" viewBox="0 0 260 360" shape-rendering="geometricPrecision" text-rendering="geometricPrecision" class="img-fluid"><defs><filter id="FL200_MC1" x="-0.569286" y="-0.569286" width="2.31857" height="2.42537"><feComponentTransfer in="SourceGraphic"><feFuncR type="linear" slope="0" /><feFuncG type="linear" slope="0" /><feFuncB type="linear" slope="0" /></feComponentTransfer><feGaussianBlur stdDeviation="6 6" /><feOffset dx="0" dy="4" /><feComponentTransfer result="1"><feFuncR type="linear" Ue="0" intercept="0" /><feFuncG type="linear" Ue="0" intercept="0.0941176" /><feFuncB type="linear" Ue="0" intercept="0.192157" /><feFuncA type="linear" xh="0" slope="0.148438" /></feComponentTransfer><feComposite result="2" in="SourceGraphic" in2="1" operator="over" /></filter><linearGradient id="LG200_MC1" spreadMethod="pad" x1="-819.2" y1="0" x2="819.2" y2="0" gradientUnits="userSpaceOnUse" gradientTransform="matrix(0.314331, 0.0544437, -0.0544437, 0.314331, 0, 0)"><stop offset="0.4" stop-color="#fff" /><stop offset="1" stop-color="#cddfff" /></linearGradient></defs><g><g id="mac_msg2" class="mac_path" opacity="0"><g transform="matrix(0.92, 0, 0, 0.96, 58, 140)"><path fill="#cddfff" d="M150 23.35L150 78.4Q150 86.8 147.55 92.55Q144.65 99.4 138.25 102.4Q133.6 104.55 127.65 104.55L80.6 104.65L79.45 104.9Q78.1 105.1 58.45 122.95Q37.2 142.3 33.15 145Q38.8 111.3 39.1 107.6Q39.25 105.35 37.9 104.55L36.45 104.2L25.1 104.2Q16.75 104.2 11.25 101.3Q4.75 97.7 1.95 90.3Q0 85.25 0 79.6L0 20.55Q0 17.6 0.8 15.05Q2.5 8.85 7.45 5.15Q14.5 0 27.45 0L123.75 0L130.6 0.55Q135.65 1.45 139.45 3.55Q144.3 6.25 146.9 10.55Q150 15.7 150 23.35" /></g><rect width="140" height="100" x="58" y="140" rx="10" ry="10" fill="url(#LG200_MC1)" /></g><g id="mac_mail2" class="mac_path" opacity="0"><g style="filter:url(#FL200_MC1);"><rect width="138" height="100" x="88" y="110" rx="10" ry="10" fill="#fff" /></g><g transform="matrix(10,0,0,10,72,64)"><g transform="translate(0,-280)"><path fill="#0071c6" d="M2.381 284.565h12.171c.44 0 .794.354.794.793v8.467c0 .44-.354.794-.794.794H2.382a.792.792 0 0 1-.795-.794v-8.467c0-.44.355-.793.794-.793z" /><rect width="11.113" height="8.731" x="2.91" y="281" rx=".775" ry=".794" fill="#fff" stroke="#cfd1da" stroke-width="0.1" stroke-linecap="round" stroke-linejoin="round" stroke-miterlimit="3" /><path fill="#10539a" d="M15.181 284.878a.788.788 0 0 1 .165.48v8.467c0 .44-.354.794-.794.794H2.382a.788.788 0 0 1-.531-.206z" /><path fill="#0680d6" d="M1.752 284.878a.788.788 0 0 0-.165.48v8.467c0 .44.355.794.794.794h12.171a.79.79 0 0 0 .53-.206z" /></g><path fill="#fff" d="M14.055 9.648c.31.31.31.811 0 1.122l-2.426 2.426a1.056 1.056 0 0 1-1.496 0 1.056 1.056 0 0 1 0-1.497l2.425-2.426.187.187-2.425 2.426a.792.792 0 0 0 0 1.123c.31.31.811.31 1.122 0l2.426-2.426a.528.528 0 1 0-.748-.748l-2.426 2.426a.264.264 0 0 0 0 .374c.104.103.27.103.374 0l2.239-2.239.187.187-2.239 2.239a.528.528 0 1 1-.748-.749l2.426-2.425a.792.792 0 0 1 1.122 0" /></g></g><g id="mac_check2" class="mac_path" opacity="0"><circle cx="50" cy="240" r="34" fill="#29c011" /><path fill="#fff" transform="matrix(0.082,0,0,0.082,30,222)" d="M 462.5,96.193 440.774,74.467 c -8.951,-8.95 -23.562,-8.95 -32.59,0 L 180.368,302.361 61.028,183.021 c -8.95,-8.951 -23.562,-8.951 -32.589,0 L 6.712,204.747 c -8.95,8.951 -8.95,23.562 0,32.589 L 163.997,394.62 c 4.514,4.514 10.327,6.809 16.218,6.809 5.891,0 11.781,-2.295 16.219,-6.809 L 462.27,128.783 c 9.18,-9.103 9.18,-23.638 0.23,-32.59 z" /></g></g></svg>