<svg xmlns="http://www.w3.org/2000/svg" xmlns:xlink="http://www.w3.org/1999/xlink" viewBox="0 0 260 360" shape-rendering="geometricPrecision" text-rendering="geometricPrecision" class="img-fluid"><defs><filter id="FL300_MC1" x="-0.569286" y="-0.569286" width="2.31857" height="2.42537"><feComponentTransfer in="SourceGraphic"><feFuncR type="linear" slope="0" /><feFuncG type="linear" slope="0" /><feFuncB type="linear" slope="0" /></feComponentTransfer><feGaussianBlur stdDeviation="6 6" /><feOffset dx="0" dy="4" /><feComponentTransfer result="1"><feFuncR type="linear" Ue="0" intercept="0" /><feFuncG type="linear" Ue="0" intercept="0.0941176" /><feFuncB type="linear" Ue="0" intercept="0.192157" /><feFuncA type="linear" xh="0" slope="0.148438" /></feComponentTransfer><feComposite result="2" in="SourceGraphic" in2="1" operator="over" /></filter><linearGradient id="LG300_MC1" spreadMethod="pad" x1="-819.2" y1="0" x2="819.2" y2="0" gradientUnits="userSpaceOnUse" gradientTransform="matrix(0.050997, 0.0427085, -0.0427085, 0.050997, 0, 0)"><stop offset="0.5" stop-color="#fff" /><stop offset="1" stop-color="#cddfff" /></linearGradient><linearGradient id="LG300_KR4990" gradientTransform="matrix(-2.74797e-009, 0.0628662, -0.0628662, -2.74797e-009, 0, 0)" spreadMethod="pad" x1="-819.2" y1="0" x2="819.2" y2="0" gradientUnits="userSpaceOnUse"><stop offset="0" stop-color="#79eb8d" /><stop offset="1" stop-color="#107c53" /></linearGradient><linearGradient id="LG300_TM4278" y2="509.33136" x2="441.04468" y1="542.05408" x1="442.2796" gradientTransform="matrix(0.66069472,0,0,0.66069472,119.96602,171.58168)" spreadMethod="pad" gradientUnits="userSpaceOnUse"><stop offset="0" stop-color="#b3b3b3" /><stop offset="1" stop-color="#ffffff" /></linearGradient><linearGradient id="LG300_TM4224" y2="517.79797" x2="400.57138" y1="545.79797" x1="400.57138" gradientTransform="matrix(1.6428588,0,0,1.6428588,-249.51086,-349.8709)" spreadMethod="pad" gradientUnits="userSpaceOnUse"><stop offset="0" stop-color="#222529" /><stop offset="1" stop-color="#4c4f52" /></linearGradient><linearGradient id="LG300_CD4475" x1="467.87598" y1="139.74503" x2="468.52365" y2="-52.903351" spreadMethod="pad" gradientUnits="userSpaceOnUse" gradientTransform="matrix(0.99883047,0,0,0.99883047,0.88417087,-0.7178006)"><stop offset="0" stop-color="#1aa5fc" /><stop offset="1" stop-color="#0c69bb" /></linearGradient><path id="mac_rect3" fill="url(#LG300_MC1)" stroke="#dce7fa" stroke-width="1" stroke-linecap="round" stroke-linejoin="round" stroke-miterlimit="3" d="M51.5 -31L51.5 31Q51.5 51 31.5 51L-31.5 51Q-51.5 51 -51.5 31L-51.5 -31Q-51.5 -51 -31.5 -51L31.5 -51Q51.5 -51 51.5 -31" /></defs><g><g id="mac_wiki3" transform="translate(-20,90) rotate(-22)" class="mac_path" opacity="0"><g transform="matrix(0.7,0,0,0.7,120,50)"><use xlink:href="#mac_rect3" /></g><g transform="matrix(0.86,0,0,0.86,92,22)"><g><rect x="8" y="4" width="48" height="56" ry="5" fill="url(#LG300_KR4990)" /><path d="m56 46-14 14h9c2.77 0 5-2.23 5-5z" fill="#000" opacity=".1" /></g><path fill="#fff" d="m29.154 21c-2.804 0-5.0768 2.2731-5.0768 5.0768s2.2729 5.0768 5.0768 5.0768c2.804 0 5.0768-2.2731 5.0768-5.0768s-2.2729-5.0768-5.0768-5.0768zm8.455 3.2921 0.0067 0.0066c-0.65708 0-1.2748 0.15112-1.8344 0.40325 0.09239 0.44346 0.14212 0.90215 0.14212 1.3717 0 1.8651-0.76866 3.5609-2.003 4.7895 0.77845 1.1846 2.1318 1.9799 3.6887 1.9799 2.4246 0 4.3893-1.9128 4.3893-4.2736s-1.9649-4.277-4.3893-4.277zm-8.455 10.24c-10.154 0.0057-10.154 6.7757-10.154 6.7757v1.6923h20.308v-1.6923s0-6.7863-10.154-6.7693zm8.4614 0.0033v0.0033c-0.33186 0-0.62904 0.02132-0.93538 0.03632 1.1805 0.67636 2.08 1.4843 2.7136 2.3302 1.5908 2.1323 1.6064 4.3995 1.6064 4.3995h5.0768v-1.6923s0-5.0768-8.4614-5.0768z" /></g></g><g id="mac_time3" transform="translate(-22,14) rotate(10)" class="mac_path" opacity="0"><g transform="matrix(0.7,0,0,0.7,120,50)"><use xlink:href="#mac_rect3" /></g><g transform="matrix(1.1,0,0,1.1,-329,-526)"><rect fill="url(#LG300_TM4224)" width="46" height="46" x="385.57144" y="500.798" ry="23" /><path fill="url(#LG300_TM4278)" d="m 411.04034,523.82005 c -0.0635,-0.52672 -0.26365,-1.00708 -0.57132,-1.4082 l 2.11232,-13.10924 c 0.0787,-0.48776 -0.23428,-0.9528 -0.71558,-1.06398 l -0.0237,-0.005 c -0.48129,-0.11132 -0.96632,0.16974 -1.10954,0.64255 l -3.84809,12.70827 c -0.94832,0.47684 -1.60662,1.44885 -1.60662,2.58091 0,1.59844 1.29982,2.89904 2.89818,2.89904 0.29785,0 0.57951,-0.0582 0.85006,-0.14191 l 8.03911,4.17771 c 0.4423,0.22977 0.98673,0.0863 1.25815,-0.33178 l 0.0115,-0.0184 c 0.2715,-0.41791 0.18124,-0.97374 -0.20884,-1.28424 z m -4.29579,0.34496 c 0,-0.78925 0.64239,-1.43162 1.43161,-1.43162 0.78994,0 1.43231,0.64237 1.43231,1.43162 0,0.78982 -0.64237,1.4323 -1.43231,1.4323 -0.78922,0 -1.43161,-0.64239 -1.43161,-1.4323 z" /></g></g><g id="mac_docs3" transform="translate(-10,44) rotate(44)" class="mac_path" opacity="0"><g transform="matrix(0.7,0,0,0.7,120,50)"><use xlink:href="#mac_rect3" /></g><g transform="matrix(0.86,0,0,0.86,92,22)"><g><rect x="8" y="4" width="48" height="56" ry="5" fill="url(#LG300_CD4475)" /><path d="m56 46-14 14h9c2.77 0 5-2.23 5-5z" fill="#000" opacity=".1" /></g><g transform="matrix(4,0,0,4,-1,-3)"><path fill="#fff" d="m4.4978 12.964v-0.52916h5.2916v0.52916zm0-1.5875v-0.52916h7.4082v0.52916zm0-1.5875v-0.52916h7.4082v0.52916zm0-1.5875v-0.52916h7.4082v0.52916z" /></g></g></g><g id="mac_ark3" transform="translate(-14,16) rotate(-32)" class="mac_path" opacity="0"><g transform="matrix(0.7,0,0,0.7,160,260)"><use xlink:href="#mac_rect3" /></g><g transform="matrix(0.86,0,0,0.86,133,233)"><g transform="translate(0 -3)"><rect width="28" height="32" x="28" y="11" fill="#FFB900" ry="2" /><rect width="28" height="32" x="8" y="9" fill="#59d16f" ry="2" /><rect width="28" height="32" x="19" y="15" fill="#337fe9" ry="2" /><path fill="#d16b0c" d="M7.16 23C5.963 23 5 23.917 5 25.057v30.857C5 57.624 6.445 59 8.24 59h47.52c1.795 0 3.24-1.376 3.24-3.086V25.057c0-1.14-.963-2.057-2.16-2.057z" /></g><path fill="#fff" d="M32 33a2 2 0 0 0-2 2v6a2 2 0 0 0 2 2 2 2 0 0 0 2-2v-6a2 2 0 0 0-2-2zm0 7a1 1 0 0 1 1 1 1 1 0 0 1-1 1 1 1 0 0 1-1-1 1 1 0 0 1 1-1z" /><path fill="#f2f2f2" d="M32 21h2v2h-2z" /><path fill="#e0e0e0" d="M30 23h2v2h-2z" /><path fill="#f2f2f2" d="M32 25h2v2h-2z" /><path fill="#e0e0e0" d="M30 27h2v2h-2z" /><path fill="#f2f2f2" d="M32 29h2v2h-2z" /><path fill="#e0e0e0" d="M30 31h2v2h-2z" /><path fill="#000" opacity="0.6" d="M42 47c-.554 0-1 .446-1 1v4c0 .554.446 1 1 1h11c.554 0 1-.446 1-1v-4c0-.554-.446-1-1-1H42zm0 .998h2v4h-2v-4zM45 48h1v4h-1v-4zm2 0h1v4h-1v-4zm2 0h2v4h-2v-4zm3 0h1v4h-1v-4zM15 44l-2 3h1v4h2v-4h1zm2 3h1v4h2v-4h1l-2-3zm-5 5v1h10v-1z" /></g></g><g id="mac_install3" transform="translate(4,28) rotate(28)" class="mac_path" opacity="0"><g transform="matrix(0.7,0,0,0.7,120,260)"><use xlink:href="#mac_rect3" /></g><g transform="matrix(3.4,0,0,3.4,91,231)"><rect width="12.7" height="13.758" x="2.117" y="1.587" fill="#1687dd" rx="1.587" ry="1.587" /><path fill="#00f" opacity=".25" d="m8.467 1.587-4.78.001c-.871.01-1.57.713-1.57 1.587v4.211a9.26 9.63 0 0 0 8.466 5.758 9.26 9.63 0 0 0 4.234-1.068V3.175c0-.88-.708-1.587-1.588-1.587H8.467z" /><path fill="#00f" opacity=".15" d="m8.467 1.587-4.78.001c-.871.01-1.57.713-1.57 1.587v10.583c0 .88.708 1.588 1.587 1.588h4.853a10.583 11.007 0 0 0 6.26-5.69V3.175c0-.88-.708-1.588-1.588-1.588H8.467z" /><path fill="#fff" d="M5.292 3.969a3.175 3.175 0 0 0 3.175 3.175 3.175 3.175 0 0 0 3.175-3.175h-.794A2.381 2.381 0 0 1 8.467 6.35a2.381 2.381 0 0 1-2.382-2.381zM7.673 8.731v2.646H6.35l2.117 2.116 2.116-2.116H9.26V8.73H7.673z" /></g></g><g id="mac_logo3" class="mac_path" opacity="0"><circle id="mac_shadow3" class="mac_path" fill="#fff" r="56" cx="130" cy="180" opacity="0" style="filter:url(#FL300_MC1);" /><g transform="matrix(1.1,0,0,1.1,130,180)"><path fill="url(#LG300_MC1)" stroke="#cfd1da" stroke-width="1" stroke-linecap="round" stroke-linejoin="round" stroke-miterlimit="3" d="M36 -36.1Q51 -21.1 51 0Q51 21.1 36 36Q21.1 51 0 51Q-21.1 51 -36.1 36Q-51 21.1 -51 0Q-51 -21.1 -36.1 -36.1Q-21.1 -51 0 -51Q21.1 -51 36 -36.1" /></g><g transform="matrix(0.44,0,0,0.44,122,162)"><g transform="translate(-62, -40)"><path fill="#00a4ef" d="M142.05 45.9L85.1 78.75L75.1 78.75L18.25 45.9L18.75 28.45L75.65 0L84.55 0L141.5 28.45L142.05 45.9" /></g><g transform="translate(-62, -40)"><path fill="#ef4414" d="M15.65 50.95L71.95 83.4L77.25 92.45L77.25 154.1L61.05 162.85L8.2 128L3.55 119.9L0 60.6L15.65 50.95" /></g><g transform="translate(-62, -40)"><path fill="#fcc800" d="M88.15 83.4L144.55 50.95L160.1 60.6L156.6 119.9L151.95 128L99.2 162.85L82.9 154.1L82.9 92.45L88.15 83.4" /></g></g></g></g></svg>