<svg xmlns="http://www.w3.org/2000/svg" xmlns:xlink="http://www.w3.org/1999/xlink" viewBox="0 0 260 360" shape-rendering="geometricPrecision" text-rendering="geometricPrecision" class="img-fluid"><defs><filter id="FL400_MC1" x="-0.569286" y="-0.569286" width="2.31857" height="2.42537"><feComponentTransfer in="SourceGraphic"><feFuncR type="linear" slope="0" /><feFuncG type="linear" slope="0" /><feFuncB type="linear" slope="0" /></feComponentTransfer><feGaussianBlur stdDeviation="8 8" /><feOffset dx="0" dy="4" /><feComponentTransfer result="1"><feFuncR type="linear" Ue="0" intercept="0" /><feFuncG type="linear" Ue="0" intercept="0.0941176" /><feFuncB type="linear" Ue="0" intercept="0.192157" /><feFuncA type="linear" xh="0" slope="0.148438" /></feComponentTransfer><feComposite result="2" in="SourceGraphic" in2="1" operator="over" /></filter><linearGradient id="LG400_MC1" spreadMethod="pad" x1="-819.2" y1="0" x2="819.2" y2="0" gradientUnits="userSpaceOnUse" gradientTransform="matrix(-5.0019e-009, 0.315527, -0.315527, -5.0019e-009, 75, 75)"><stop offset="0.6" stop-color="#fff" /><stop offset="1" stop-color="#cddfff" /></linearGradient></defs><g><g id="mac_globe4" class="mac_path" opacity="0"><g transform="matrix(1,0,0,1,0,10)"><circle fill="url(#LG400_MC1)" r="80" cx="128" cy="186" /><g transform="matrix(4.4, 0, 0, 4.4, -1670, -2118)"><path fill="#cddfff" d="M408.32 505.81a18.154 18.154 0 0 0-4 .507c-.338.304-.838.458-1.399.442-.201.192-.154.55-.264.814-.092.221-.416.458-.638.439-.164-.014-.351-.244-.352-.397-.001-.184.256-.287.116-.492a17.885 17.885 0 0 0-3.985 2.258c.327-.12.688-.323.984-.329a.517.517 0 0 1 .138.015c.199.052.724.627.286.814-.041.018-.642.083-.746.065-.152-.026-.243-.236-.397-.264-.258-.045-.586.223-.809.103a17.947 17.947 0 0 0-5.497 7.599c.105-.061.212-.124.306-.173.321-.167.593-.437.967-.462.187-.004.456.05.635.088.165.034.299.145.442.156.406.031.502-.285.834-.462.342.048.57-.057.879-.023.211.023.363.249.527.261.138.014.261-.128.394-.108.13.02.353.303.374.462.027.198-.145.376-.088.593.207.211.583.253.879.374.193-.159.026-.453 0-.683-.004-.101.014-.191 0-.284-.018-.158-.087-.304-.088-.439-.004-.625.505-.918.924-1.165.182-.108.325-.295.482-.374.222-.112.388-.138.573-.241.333-.187.619-.338.879-.55.12-.284.013-.664.023-.944.12-.074.224.033.352.023.201-.042.218-.326.331-.439.066-.065.247-.111.329-.176.2-.157.265-.394.439-.462.063-.025.208-.019.306-.045.13-.035.315-.189.527-.261.138-.048.455-.058.507-.11.065-.066 0-.252.023-.352.107-.496.854-.601 1.296-.768.31-.117.627-.332.967-.266-.067.236-.383.153-.329.439.074.397.605-.115.746-.173.268-.113.728-.181 1.08-.309.308-.113.861-.285.57-.638-.242-.014-.359.284-.57.374-.146.023-.119-.121-.244-.133-.118-.014-.185.109-.306.088-.121-.02-.29-.21-.309-.352-.048-.367.31-.517.462-.791-.1-.332-.559-.069-.836-.198.026-.198.231-.334.462-.372.189-.032.613-.015.726.085.065.055.005.194.11.286.112.101.249.092.394.068.053-.25-.325-.188-.284-.354.297-.194.779-.034 1.143-.088.209-.031.43-.179.615-.284.176-.1.406-.275.593-.11.051.179-.164.24-.264.329a7.145 7.145 0 0 0-.944.989c.16.156.452.078.723.11.106.014.239.046.352.065.131.023.272.016.374.043.185.045.234.244.417.244.301-.001.303-.327.133-.53.054-.207.138-.314.065-.46-.135-.271-.632-.014-.658-.352-.016-.219.184-.21.264-.374-.036-.423.347-.454.306-.834-.018-.159-.153-.16-.264-.309-.058-.076-.084-.227-.153-.286-.23-.194-.697-.157-.726-.527-.004-.125.014-.238.025-.357-.212-.01-.421-.03-.635-.033zm-8.563 4.312c.103.014.227.124.352.133.117.004.214-.064.286-.045.184.048.261.326.088.462-.144.018-.201-.062-.309-.043-.298.051-.412.635-.635.615-.21-.018-.324-.53-.11-.683.014-.133-.097-.155-.09-.286.063-.081.244-.168.419-.153m-.989.068c.061.003.107.016.131.043-.029.234-.213.22-.394.329-.312.189-.493.476-.593.879-.029.117-.336.428-.485.397-.348-.073.096-.716.176-.814.088-.108.205-.204.309-.329.1-.121.167-.284.264-.352.106-.073.409-.16.593-.153m2.602.791c.112.003.21.02.256.065-.072.29-.695.213-.924.108.015-.109.185-.139.329-.153.101-.004.228-.023.339-.02m-1.424.535a.783.783 0 0 1 .229.035c-.202.169-.421.264-.768.374-.167.053-.456.119-.485-.068-.035-.229.244-.175.397-.196.192-.026.403-.138.628-.146m22.08.326c.017.165.019.322-.025.5-.06.238-.274.454-.264.66.014.106.13.208.156.352.014.076-.036.24 0 .309.112.216.416.033.615.065.194.031.419.31.417.527-.003.152-.145.404-.241.55-.192.291-.451.304-.726.46-.229.13-.328.347-.462.573-.146.244-.236.392-.176.746-.196.39-.495.628-.902.814-.12.054-.284.073-.394.153-.088.063-.139.234-.264.374-.154.172-.316.243-.397.374-.063.101-.084.304-.153.439-.094.185-.294.275-.417.462-.056.087-.094.261-.156.374-.139.253-.377.435-.352.658.026.215.27.252.286.439.004.106-.07.171-.065.286.004.169.117.287.131.417.033.326-.112.457-.173.681-.029.107-.017.226-.045.309-.054.163-.282.312-.286.505-.003.137.142.247.153.439.004.133-.066.275-.043.397.047.239.475.517.66.703.249.249.573.441.681.703.09.222.09.513.264.681.128.124.341.2.505.329.153.12.321.224.485.352.268.209.671.627 1.097.595.223-.016.451-.199.703-.244.26-.046.597-.07.859-.043.201.02.407.14.615.131.22-.014.473-.177.723-.286.396-.172.971-.386 1.549-.354.111-.81.188-1.632.188-2.473 0-3.406-.953-6.574-2.584-9.284-.076-.005-.145-.016-.229-.013-.223.014-.589.014-.593-.264-.002-.228.215-.278.475-.294a18.05 18.05 0 0 0-1.617-2.102m-27.475 8.247c-.365.02-.604.037-.811.131-.476.216-.384.86-.859 1.012-.164.053-.389.054-.57.088-.156.028-.346.114-.507.111-.19-.004-.522-.187-.635-.309-.078-.084-.205-.379-.289-.575a18.025 18.025 0 0 0-.241 1.931c.039.007.08.018.113.018.208.001.431-.215.66-.221.539-.015.773.686 1.208.902.109.054.253.057.394.088.114.025.199.073.309.11.232.079.517.07.703.153.28.124.485.65.726.791.014.142-.026.334.023.439.114.154.275.12.462.221.224.121.292.432.505.527.073.033.258.03.374.065.291.088.386.425.635.352.164-.048.152-.218.178-.374.108-.117.226-.303.394-.306.273-.014.297.282.397.547.056.15.203.281.241.439.068.273.035 1.09-.023 1.253-.069.2-.34.285-.507.507-.079.104-.116.256-.176.329-.108.131-.269.165-.349.286-.046.068-.089.214-.133.306-.132.28-.309.478-.198.814.046.138.263.232.264.394.001.191-.408.363-.439.573-.023.156.126.435.176.638.036.153.326.249.417.352.154.173.278.418.419.635.279.428.497.949.768 1.364.143.217.344.412.439.638.049.114.043.249.088.352.157.355.85.726 1.208.902.168.082.354.111.507.196.233.13.693.479.811.683.105.184.17.63.221.922.068.386.004.682.023 1.1.014.226.085.454.088.681.001.079-.042.138-.045.218-.004.274.069.583.045.859a.94.94 0 0 1-.018.156c2.157.91 4.53 1.414 7.03 1.414.261 0 .515-.029.773-.04.005-.041.012-.082.02-.116.08-.223.285-.297.417-.462.1-.124.146-.27.241-.394.103-.135.196-.255.264-.374.065-.401-.16-.681-.065-1.032.105-.395.65-.636 1.032-.814.132-.061.267-.161.374-.198.265-.092.594-.042.836-.131.412-.151.455-.592.658-.967.096-.178.222-.356.241-.482.016-.114-.041-.22-.023-.354.02-.133.139-.248.176-.394.048-.19.068-.468.068-.681 0-.174-.081-.328-.088-.485-.028-.57.206-.634.417-.944.106-.154.145-.329.218-.439.354-.528.969-.783.924-1.582-.015-.264-.18-.862-.374-.947-.111-.048-.366-.004-.527-.065-.519-.194-.825-.838-1.364-.879-.115-.014-.22.047-.349.045-.213-.014-.535-.149-.771-.176-.15-.016-.349.044-.439 0-.137-.067-.152-.319-.264-.394-.089-.061-.26-.081-.394-.133-.216-.083-.388-.181-.638-.198-.077-.004-.174.037-.264.023-.138-.023-.247-.186-.374-.264-.16-.097-.308-.145-.374-.284.144-.473-.255-.605-.352-.879-.046-.128-.025-.282-.065-.397-.057-.164-.219-.258-.397-.394-.318-.245-.6-.474-1.055-.53-.2-.025-.396.06-.638.045-.256-.016-.577-.241-.768-.46-.186-.214-.277-.405-.439-.507-.154-.099-.357-.096-.462-.196-.047-.044-.038-.118-.088-.221-.077-.16-.207-.248-.111-.439-.175-.09-.18.166-.372.133-.171-.242-.315-.357-.703-.286-.178.033-.278.258-.485.264-.17.014-.303-.189-.527-.221-.169-.023-.362.046-.482.023-.188-.037-.245-.194-.417-.306-.126-.082-.369-.223-.439-.221-.221.014-.378.47-.683.309-.148-.188.241-.287.065-.462-.133-.133-.245.06-.352.133-.122.084-.237.169-.372.218-.302.113-.49.054-.726.176-.218.113-.228.303-.352.527-.101.184-.333.451-.485.462-.184.014-.36-.257-.527-.329-.503-.218-.747.193-1.165.198-.388.014-.941-.625-.922-.989.004-.222.127-.561.153-.836.023-.219.173-.35.176-.55.004-.267-.354-.473-.527-.505-.411-.076-.981.166-1.451-.023-.09-.149.105-.252.156-.397.028-.082.013-.193.043-.284.052-.14.198-.248.264-.397.049-.113.061-.276.11-.417.057-.16.163-.262.176-.374a.495.495 0 0 0-.156-.417m5.876 4.653c.149.014.167.322.015.347-.164.026-.247-.258-.088-.331a.137.137 0 0 1 .073-.015" /></g></g></g><g id="mac_mail4" class="mac_path" opacity="0"><g transform="matrix(1.1,0,0,1.1,-20,10)"><g style="filter:url(#FL400_MC1);"><rect width="110" height="80" x="117" y="82" rx="10" ry="10" fill="#fff" /></g><g transform="matrix(0.246,0,0,0.246,58,100)"><path fill="#0071c6" d="M 464,-218.39982 250.19384,-57.96854 c -0.46,0.2992 -0.87696,0.6528 -1.31256,0.98448 l -0.2624,0.1976 0,0.024 C 243.4044,-52.66806 240,-46.37038 240,-39.1967 l 0,236.8 c 0,12.40952 9.9904,22.4 22.40008,22.4 l 403.19992,0 c 12.4096,0 22.4,-9.99048 22.4,-22.4 l 0,-236.8 c 0,-7.33616 -3.55008,-13.76896 -8.96872,-17.85 l 0.0896,-0.1312 L 464,-218.39686 Z" /><rect fill="#fff" stroke="#cfd1da" stroke-width="1" stroke-linecap="round" stroke-linejoin="round" stroke-miterlimit="3" width="352" height="368" x="288" y="-179.99982" rx="23.999878" ry="23.980627" /><path fill="#10539a" d="m 240,-39.19982 425.6,291.2 -401.6,0 c -1.59992,0 -24,0 -24,-24 z" /><path fill="#0680d6" d="m 664,252.00018 c 24,0 24,-24 24,-24 l 0,-267.2 0,0 -425.59992,291.2 z" /><path fill="#b3b3b3" d="m 368,-115.99982 0,16 192,0 0,-16 z m 0,32 0,16 192,0 0,-16 z m 0,32 0,16 192,0 0,-16 z m 0,32 0,16 96,0 0,-16 z" /></g></g></g><g id="mac_teleg4" class="mac_path" opacity="0"><g transform="matrix(1.5,0,0,1.5,145,130)" style="filter:url(#FL400_MC1);"><path fill="#c8daea" d="M28.218 43.231c-.911 0-.753-.345-1.07-1.21l-2.674-8.802 16.56-10.344 1.933.507-1.605 4.4z" /><path fill="#a7c2d1" d="M28.218 43.231c.703 0 1.01-.32 1.401-.703.604-.59 8.42-8.186 8.42-8.186l-4.788-1.16-4.443 2.808-.59 7.004z" /><path fill="#fff" stroke="#cfd1da" stroke-width="0.1" stroke-linecap="round" stroke-linejoin="round" stroke-miterlimit="3" d="m5.697 8.07 2.719 2.01c.31.171.534.083.612-.288l1.107-5.216c.113-.454-.173-.66-.47-.526l-6.5 2.507c-.444.178-.441.425-.081.536l1.668.521 3.861-2.436c.182-.111.35-.051.212.071z" transform="matrix(4.1595 0 0 4.1595 5 2.522)" /></g></g><g id="mac_repl4" class="mac_path" opacity="0"><g transform="matrix(1.1,0,0,1.1,5,-25)"><circle fill="#cfd1da" cx="60" cy="262" r="30" /><circle fill="#ff9800" cx="60" cy="260" r="30" /><g transform="matrix(0.8,0,0,-0.8,40,280)"><g fill="#fff"><polygon points="5,18 19,6.3 19,29.7" /><path d="M28,14H16v8h12c2.8,0,5,2.2,5,5s-2.2,5-5,5h-3v8h3c7.2,0,13-5.8,13-13S35.2,14,28,14z" /></g></g></g></g></g></svg>