<svg xmlns="http://www.w3.org/2000/svg" xmlns:xlink="http://www.w3.org/1999/xlink" viewBox="0 0 260 360" shape-rendering="geometricPrecision" text-rendering="geometricPrecision" class="img-fluid"><defs><filter id="FL700_MC1" x="-0.569286" y="-0.569286" width="2.31857" height="2.42537"><feComponentTransfer in="SourceGraphic"><feFuncR type="linear" slope="0" /><feFuncG type="linear" slope="0" /><feFuncB type="linear" slope="0" /></feComponentTransfer><feGaussianBlur stdDeviation="3 3" /><feOffset dx="0" dy="4" /><feComponentTransfer result="1"><feFuncR type="linear" Ue="0" intercept="0" /><feFuncG type="linear" Ue="0" intercept="0.0941176" /><feFuncB type="linear" Ue="0" intercept="0.192157" /><feFuncA type="linear" xh="0" slope="0.148438" /></feComponentTransfer><feComposite result="2" in="SourceGraphic" in2="1" operator="over" /></filter><linearGradient id="LG700_MC1" spreadMethod="pad" x1="-819.2" y1="0" x2="819.2" y2="0" gradientUnits="userSpaceOnUse" gradientTransform="matrix(-0.0570374, 0.0987916, -0.0987916, -0.0570374, 0, 0)"><stop offset="0" stop-color="#fff" /><stop offset="1" stop-color="#cddfff" /></linearGradient><linearGradient id="LG700_MC2" spreadMethod="pad" x1="-819.2" y1="0" x2="819.2" y2="0" gradientUnits="userSpaceOnUse" gradientTransform="matrix(-0.0488587, 0.0846256, -0.0846256, -0.0488587, 80.05, 81.4)"><stop offset="0" stop-color="#a31af8" /><stop offset="1" stop-color="#2018bd" /></linearGradient><linearGradient id="LG700_CD4474" x1="-819.2" y1="0" x2="819.2" y2="0" gradientTransform="matrix(-0.0570374, 0.0987916, -0.0987916, -0.0570374, 0, 0)" spreadMethod="pad" gradientUnits="userSpaceOnUse"><stop offset="0.5" stop-color="#fed722" /><stop offset="0.8" stop-color="#e2a808" /></linearGradient><linearGradient id="LG700_CD4475" x1="-819.2" y1="0" x2="819.2" y2="0" gradientTransform="matrix(-0.0570374, 0.0987916, -0.0987916, -0.0570374, 0, 0)" spreadMethod="pad" gradientUnits="userSpaceOnUse"><stop offset="0.4" stop-color="#fed722" /><stop offset="0.75" stop-color="#d89e00" /></linearGradient></defs><g><g id="mac_logo7" class="mac_path" opacity="0"><g transform="matrix(0.8,0,0,0.8,130,170)"><path fill="url(#LG700_MC1)" stroke="#cfd1da" stroke-width="1" stroke-linecap="round" stroke-linejoin="round" stroke-miterlimit="3" d="M93.45 58Q93.45 72.45 83.2 82.7Q72.95 92.95 58.5 92.95L-58.5 92.95Q-72.95 92.95 -83.2 82.7Q-93.45 72.45 -93.45 58L-93.45 -58Q-93.45 -72.45 -83.2 -82.7Q-72.95 -92.95 -58.5 -92.95L58.5 -92.95Q72.95 -92.95 83.2 -82.7Q93.45 -72.45 93.45 -58L93.45 58" /></g><g transform="matrix(0.64,0,0,0.64,130,170)"><g transform="translate(-80.05,-81.4)"><path fill="url(#LG700_MC2)" d="M142.05 45.9L85.1 78.75L75.1 78.75L18.25 45.9L18.75 28.45L75.65 0L84.55 0L141.5 28.45L142.05 45.9M88.15 83.4L144.55 50.95L160.1 60.6L156.6 119.9L151.95 128L99.2 162.85L82.9 154.1L82.9 92.45L88.15 83.4M15.65 50.95L71.95 83.4L77.25 92.45L77.25 154.1L61.05 162.85L8.2 128L3.55 119.9L0 60.6L15.65 50.95" /></g></g></g><g id="mac_secur7" class="mac_path" opacity="0"><g transform="matrix(3.5,0,0,3.5,70,120)" style="filter:url(#FL700_MC1);"><circle cx="32" cy="32" r="8" fill="#d89e00" /><g><path fill="url(#LG700_CD4474)" d="m32 15.084-14 4.58c0 9.64-.043 14.925 1.652 18.75 1.696 3.828 5.176 6.347 12.348 10.502 7.172-4.155 10.652-6.674 12.348-10.502C46.043 34.59 46 29.304 46 19.664zm.292 10.5a3.208 3.208 0 0 1 3.208 3.208 3.191 3.191 0 0 1-1.948 2.95l1.948 6.675h-6.417l1.949-6.674a3.19 3.19 0 0 1-1.949-2.951 3.208 3.208 0 0 1 3.209-3.209z" /><path fill="url(#LG700_CD4475)" d="m32 18-11.664 4.083c0 15.714-.453 16.92 11.664 23.917 12.017-6.946 11.664-8.197 11.664-23.917zm.292 7.583a3.208 3.208 0 0 1 3.208 3.209 3.191 3.191 0 0 1-1.948 2.95l1.948 6.675h-6.417l1.949-6.674a3.19 3.19 0 0 1-1.949-2.951 3.208 3.208 0 0 1 3.209-3.209z" /></g></g></g><g id="mac_alian7" class="mac_path" opacity="0"><g transform="matrix(1,0,0,1,2,290)" style="filter:url(#FL700_MC1);"><path fill="#22b322" transform="translate(0,1)" d="M9.6 25.67C9.6 40.078 21.495 60 32 60c9.89 0 22.4-19.925 22.4-34.33C54.4 11.266 44.371 4 32 4 19.629 4 9.6 11.264 9.6 25.67z" /><path fill="#67eb67" d="M9.6 25.67C9.6 40.078 21.495 60 32 60c9.89 0 22.4-19.925 22.4-34.33C54.4 11.266 44.371 4 32 4 19.629 4 9.6 11.264 9.6 25.67z" /><path fill="#2c3135" d="M38.135 35.335a11.378 11.378 0 0 1 10.418-3.088c.77 3.643-.259 7.59-3.088 10.418a11.378 11.378 0 0 1-10.418 3.088c-.77-3.643.26-7.59 3.088-10.418zM15.446 32.438c3.643-.759 7.59.256 10.418 3.045a11.117 11.117 0 0 1 3.088 10.273c-3.642.76-7.59-.255-10.418-3.044a11.117 11.117 0 0 1-3.088-10.274z" /></g></g><g id="mac_fear7" class="mac_path" opacity="0"><g transform="matrix(0.88,0,0,0.88,194,6)" style="filter:url(#FL700_MC1);"><path fill="#fa1d1d" stroke="#ff3434" stroke-width="1" stroke-linecap="round" stroke-linejoin="round" stroke-miterlimit="3" d="M60,29C60,13.5,47.46,2,32,2S4,13.5,4,29,16.54,58,32,58,60,44.43,60,29Z" /><path fill="#2c3135" stroke="#f50000" stroke-width="2" stroke-linecap="round" stroke-linejoin="round" stroke-miterlimit="3" d="M48.83,39.15A2.13,2.13,0,0,0,50.74,36a21.46,21.46,0,0,0-37.44-.08,2.13,2.13,0,0,0,1.9,3.14l13.66-1.36a31.38,31.38,0,0,1,6.28,0Z" /><circle fill="#2c3135" cx="22" cy="18" r="3" /><circle fill="#2c3135" cx="42" cy="18" r="3" /></g></g><g id="mac_arcad7" class="mac_path" opacity="0"><g transform="matrix(0.95,0,0,0.95,150,295)" style="filter:url(#FL700_MC1);"><path fill="#22b322" d="M62,32C62,20.4,49,7,33,7S4,20.4,4,32,17,53,33,53,62,43.6,62,32Z" /><path fill="#2c3135" d="M33,34c-10.64,0-20,3.11-25.61,7.86C12.27,48.49,21.9,53,33,53s20.73-4.51,25.61-11.14C53,37.11,43.64,34,33,34Z" /><path fill="#fdec2e" stroke="#2c3135" stroke-width="0.1" stroke-linecap="round" stroke-linejoin="round" stroke-miterlimit="3" d="M16,51.19C16,55,18.59,58,21.79,58H44.21c3.2,0,5.79-3,5.79-6.81V41.31A41.78,41.78,0,0,0,33,38a41.78,41.78,0,0,0-17,3.31Z" /><rect fill="#2c3135" x="26" y="42" width="3" height="9" rx="1.5" ry="1.5" /><rect fill="#2c3135" x="37" y="42" width="3" height="9" rx="1.5" ry="1.5" transform="translate(77 93) rotate(180)" /><circle fill="#fff" cx="33" cy="20" r="9" /><path fill="#fff" d="M8.83,19.15A21.81,21.81,0,0,0,4,32a15.58,15.58,0,0,0,.28,2.9A9,9,0,0,0,8.83,19.15Z" /><path fill="#fff" d="M57.17,19.15A21.81,21.81,0,0,1,62,32a15.58,15.58,0,0,1-.28,2.9,9,9,0,0,1-4.55-15.75Z" /></g></g></g></svg>