<svg xmlns="http://www.w3.org/2000/svg" xmlns:xlink="http://www.w3.org/1999/xlink" viewBox="0 0 5924 985" shape-rendering="geometricPrecision" text-rendering="geometricPrecision"><g fill="#0D0D0D" transform="matrix(1,0,0,1,0,0)"><path d="M525 92.4124L374.807 6.58785C359.435 -2.19594 340.565 -2.19595 325.193 6.58784L25.1931 178.016C9.6143 186.919 0 203.486 0 221.429V392.412L350 192.412L525 92.4124Z" /><path d="M525 92.4124L350 192.412L525 292.412L700 392.412V221.429C700 203.486 690.386 186.919 674.807 178.016L525 92.4124Z" /><path d="M25.1931 578.016C9.61431 586.919 0 603.486 0 621.429V792.412L350 592.412L525 492.412L700 392.412L525 292.412L25.1931 578.016Z" /><path d="M700 621.429C700 603.486 690.386 586.919 674.807 578.016L525 492.412L350 592.412L525 692.412L700 792.412V621.429Z" /><path d="M525 692.412L175 892.412L325.193 978.237C340.565 987.021 359.435 987.021 374.807 978.237L700 792.412L525 692.412Z" /><path d="M955 801.673V200.982H1258.79C1319.05 200.982 1363.78 215.285 1392.98 243.889C1422.8 271.871 1437.71 311.669 1437.71 363.281C1437.71 395.616 1431.49 422.666 1419.07 444.43C1406.64 465.572 1389.87 482.051 1368.75 493.866C1396.7 502.571 1418.76 517.184 1434.91 537.705C1451.68 557.603 1460.07 587.14 1460.07 626.316C1460.07 684.146 1443.61 727.985 1410.68 757.833C1378.38 787.06 1331.47 801.673 1269.97 801.673H955ZM1080.8 450.026H1235.49C1265.93 450.026 1287.68 443.497 1300.72 430.439C1313.77 416.758 1320.29 397.792 1320.29 373.541C1320.29 346.802 1313.46 326.904 1299.79 313.845C1286.74 300.787 1262.2 294.257 1226.17 294.257H1080.8V450.026ZM1080.8 709.33H1240.15C1271.83 709.33 1295.13 702.801 1310.04 689.743C1324.95 676.684 1332.41 653.676 1332.41 620.719C1332.41 593.981 1324.95 574.082 1310.04 561.023C1295.75 547.965 1269.66 541.436 1231.76 541.436H1080.8V709.33Z" /><path d="M1777.6 811C1701.18 811 1640.61 792.034 1595.88 754.102C1551.15 715.549 1528.79 657.407 1528.79 579.678C1528.79 509.411 1547.43 453.757 1584.7 412.716C1622.6 371.054 1678.82 350.222 1753.37 350.222C1821.7 350.222 1873.89 368.255 1909.92 404.322C1946.57 439.766 1964.9 486.404 1964.9 544.234V624.45H1645.27C1652.1 659.895 1668.26 684.146 1693.73 697.205C1719.82 710.263 1756.47 716.792 1803.69 716.792C1827.3 716.792 1851.21 714.616 1875.44 710.263C1900.29 705.91 1921.41 700.314 1938.81 693.474V783.018C1918.31 792.345 1894.39 799.185 1867.06 803.538C1839.72 808.513 1809.9 811 1777.6 811ZM1645.27 547.032H1854.94V522.781C1854.94 497.286 1847.49 477.387 1832.58 463.085C1817.67 448.161 1792.51 440.699 1757.1 440.699C1715.47 440.699 1686.27 449.094 1669.5 465.883C1653.35 482.673 1645.27 509.722 1645.27 547.032Z" /><path d="M2052.49 801.673V200.982H2474.62V298.921H2178.29V452.825H2440.14V549.83H2178.29V801.673H2052.49Z" /><path d="M2520.24 801.673V359.55H2636.72L2642.32 405.254C2662.2 392.818 2686.73 381.625 2715.93 371.675C2745.75 361.104 2774.95 353.953 2803.53 350.222V445.363C2786.75 447.85 2768.43 451.581 2748.55 456.556C2728.67 461.53 2709.72 467.127 2691.7 473.345C2673.69 479.563 2658.47 486.093 2646.04 492.933V801.673H2520.24Z" /><path d="M3079.84 811C3003.43 811 2942.86 792.034 2898.13 754.102C2853.4 715.549 2831.03 657.407 2831.03 579.678C2831.03 509.411 2849.67 453.757 2886.94 412.716C2924.84 371.054 2981.06 350.222 3055.61 350.222C3123.95 350.222 3176.13 368.255 3212.17 404.322C3248.82 439.766 3267.15 486.404 3267.15 544.234V624.45H2947.52C2954.35 659.895 2970.5 684.146 2995.97 697.205C3022.06 710.263 3058.72 716.792 3105.93 716.792C3129.54 716.792 3153.46 714.616 3177.69 710.263C3202.54 705.91 3223.66 700.314 3241.05 693.474V783.018C3220.55 792.345 3196.63 799.185 3169.3 803.538C3141.96 808.513 3112.15 811 3079.84 811ZM2947.52 547.032H3157.19V522.781C3157.19 497.286 3149.73 477.387 3134.82 463.085C3119.91 448.161 3094.75 440.699 3059.34 440.699C3017.72 440.699 2988.52 449.094 2971.74 465.883C2955.59 482.673 2947.52 509.722 2947.52 547.032Z" /><path d="M3584.9 811C3508.49 811 3447.92 792.034 3403.19 754.102C3358.46 715.549 3336.1 657.407 3336.1 579.678C3336.1 509.411 3354.73 453.757 3392.01 412.716C3429.9 371.054 3486.13 350.222 3560.68 350.222C3629.01 350.222 3681.2 368.255 3717.23 404.322C3753.88 439.766 3772.21 486.404 3772.21 544.234V624.45H3452.58C3459.41 659.895 3475.56 684.146 3501.04 697.205C3527.13 710.263 3563.78 716.792 3611 716.792C3634.6 716.792 3658.52 714.616 3682.75 710.263C3707.6 705.91 3728.72 700.314 3746.12 693.474V783.018C3725.62 792.345 3701.7 799.185 3674.36 803.538C3647.03 808.513 3617.21 811 3584.9 811ZM3452.58 547.032H3662.25V522.781C3662.25 497.286 3654.79 477.387 3639.88 463.085C3624.97 448.161 3599.81 440.699 3564.4 440.699C3522.78 440.699 3493.58 449.094 3476.81 465.883C3460.66 482.673 3452.58 509.722 3452.58 547.032Z" /><path d="M3982.8 811C3939.94 811 3908.56 801.051 3888.68 781.152C3869.43 761.253 3859.8 729.54 3859.8 686.012V173H3985.6V675.751C3985.6 691.297 3988.7 702.179 3994.92 708.398C4001.13 713.994 4010.14 716.792 4021.94 716.792C4038.09 716.792 4052.69 714.616 4065.74 710.263V797.009C4042.13 806.336 4014.49 811 3982.8 811Z" /><path d="M4276.2 811C4248.25 811 4222.15 806.025 4197.92 796.076C4174.32 785.505 4155.06 770.27 4140.15 750.371C4125.86 729.851 4118.72 704.356 4118.72 673.886C4118.72 630.358 4133.94 595.535 4164.38 569.418C4195.44 543.301 4241.1 530.243 4301.36 530.243H4431.82V518.117C4431.82 490.756 4424.06 471.48 4408.53 460.287C4393.62 449.094 4363.18 443.497 4317.2 443.497C4266.88 443.497 4218.43 451.27 4171.83 466.816V378.205C4192.33 370.121 4217.18 363.592 4246.38 358.617C4276.2 353.02 4308.51 350.222 4343.3 350.222C4409.77 350.222 4461.02 363.903 4497.05 391.263C4533.71 418.002 4552.03 461.219 4552.03 520.915V801.673H4443.01L4436.48 761.564C4419.09 777.11 4397.65 789.236 4372.18 797.942C4346.71 806.647 4314.72 811 4276.2 811ZM4310.68 727.985C4338.64 727.985 4362.86 723.322 4383.37 713.994C4403.87 704.667 4420.02 692.852 4431.82 678.55V608.594H4304.16C4255.08 608.594 4230.54 628.803 4230.54 669.222C4230.54 708.398 4257.25 727.985 4310.68 727.985Z" /><path d="M4653.34 801.673V359.55H4769.82L4774.48 401.523C4792.5 387.843 4815.17 376.028 4842.51 366.079C4870.46 355.508 4899.66 350.222 4930.1 350.222C4988.5 350.222 5031.05 363.903 5057.77 391.263C5084.48 418.624 5097.84 460.908 5097.84 518.117V801.673H4972.03V524.646C4972.03 494.798 4965.82 473.656 4953.4 461.219C4941.59 448.783 4919.23 442.564 4886.3 442.564C4867.04 442.564 4847.48 446.917 4827.6 455.623C4808.34 464.328 4792.19 475.211 4779.14 488.269V801.673H4653.34Z" /><path d="M5411.21 811C5332.31 811 5271.74 791.412 5229.5 752.237C5187.88 713.061 5167.06 655.853 5167.06 580.611C5167.06 502.882 5189.43 445.052 5234.16 407.12C5279.51 369.188 5339.77 350.222 5414.94 350.222C5446 350.222 5472.72 352.399 5495.08 356.751C5517.44 361.104 5539.19 368.255 5560.31 378.205V468.681C5544.78 461.219 5526.76 455.312 5506.26 450.959C5485.76 446.606 5463.71 444.43 5440.1 444.43C5392.89 444.43 5356.85 454.379 5332 474.278C5307.15 493.555 5294.73 528.999 5294.73 580.611C5294.73 627.87 5305.91 662.382 5328.28 684.146C5351.26 705.91 5388.23 716.792 5439.17 716.792C5460.91 716.792 5482.03 714.616 5502.54 710.263C5523.66 705.91 5543.23 699.381 5561.24 690.675V783.95C5519.62 801.983 5469.61 811 5411.21 811Z" /><path d="M5640.71 801.673V359.55H5757.2L5762.79 405.254C5782.67 392.818 5807.21 381.625 5836.4 371.675C5866.22 361.104 5895.42 353.953 5924 350.222V445.363C5907.23 447.85 5888.9 451.581 5869.02 456.556C5849.14 461.53 5830.19 467.127 5812.18 473.345C5794.16 479.563 5778.94 486.093 5766.52 492.933V801.673H5640.71Z" /></g></svg>