<svg xmlns="http://www.w3.org/2000/svg" xmlns:xlink="http://www.w3.org/1999/xlink" viewBox="0 0 1000 273" shape-rendering="geometricPrecision" text-rendering="geometricPrecision"><g fill="#0D0D0D" transform="matrix(1,0,0,1,0,0)"><path d="M826.854 36.0927H789.751L779.156 45.2197V159.034L732.411 210.363C723.416 219.357 712.173 223.855 699.806 223.855C695.308 223.855 690.811 222.73 687.438 221.606L770.638 133.909L757.146 121.541C741.406 106.925 721.168 99.0548 699.806 99.0548C675.07 99.0548 652.584 110.298 637.968 127.163L623.352 142.903C619.979 133.909 614.357 124.914 605.362 118.168C591.871 106.925 575.006 100.179 557.016 101.303C542.4 101.303 527.784 108.049 515.416 119.293L514.292 120.417L513.168 121.541L494.054 141.779C490.681 132.784 483.935 123.79 476.065 117.044C462.573 105.801 445.708 99.0548 427.719 100.179C409.73 101.303 393.989 108.049 381.622 120.417L345.643 159.768C336.649 124.914 304.043 99.0548 265.816 99.0548C241.081 99.0548 218.595 110.298 202.854 127.163L173.622 158.644L142.141 192.374L125.276 210.363C116.281 219.357 105.038 223.855 92.6703 223.855C67.9352 223.855 47.6974 203.617 47.6974 180.006C47.6974 171.479 50.1038 163.621 54.269 156.983C61.9338 150.579 71.9569 146.744 83.0743 146.744C99.7424 146.744 115.952 156.6 122.566 170.733L123.981 173.863L125.113 172.604L133.913 162.405L151.567 143.216L160.13 133.909C144.389 112.547 119.654 99.0548 92.6703 99.0548C69.7153 99.6284 48.8256 109.297 33.8587 124.443C13.3406 139.513 0 163.246 0 189.594C0 234.782 37.2672 271.544 83.0743 271.544C105.486 271.544 126.605 262.913 142.659 247.218L144.052 245.787L155.543 232.712L174.596 212.346L174.774 212.947C179.455 229.48 189.644 244.42 203.611 255.174C218.262 266.455 236.546 272.668 255.096 272.668C278.755 272.668 301.733 262.452 316.538 245.368L330.549 230.412L399.749 156.536C410.091 145.159 428.643 144.194 441.062 154.354C453.147 165.341 454.085 182.619 443.276 194.51L436.506 201.281L373.102 269.295H426.436L435.232 259.097L435.573 258.709H435.589L456.951 235.098L467.07 223.855L480.562 209.239L524.431 161.996L530.138 156.57C535.912 150.796 542.483 147.868 549.669 147.868C555.635 147.868 564.062 149.183 570.359 155.479C576.425 160.993 579.866 168.253 580.049 175.921C580.216 182.921 577.56 189.523 572.546 194.538L503.539 269.295H556.058L567.896 256.73L588.497 235.098L609.818 212.711L609.902 213C614.591 229.511 624.773 244.431 638.725 255.174C653.375 266.455 671.66 272.668 690.21 272.668C712.622 272.668 737.747 262.094 749.794 248.343L765.424 230.745L767.122 228.82L781.82 212.602L781.917 212.979C786.603 229.499 796.788 244.426 810.746 255.174C825.397 266.455 843.681 272.668 862.231 272.668H862.69L871.827 262.082V226.103C847.092 226.103 826.854 205.866 826.854 182.255V147.868H862.691L871.827 137.282L871.827 99.0548H826.854V36.0927ZM781.154 46.1409L789.751 38.8019V147.401L781.154 156.841V46.1409ZM265.816 223.855C241.081 223.855 220.843 203.617 220.843 180.006C220.452 171.794 222.651 163.993 226.766 157.306C234.806 150.55 245.298 146.744 256.22 146.744C280.057 146.744 300.194 166.367 300.194 189.594C300.194 200.012 296.559 209.448 290.436 216.799C283.35 221.275 274.889 223.855 265.816 223.855ZM302.192 189.594C302.192 165.284 281.14 144.746 256.22 144.746C247.005 144.746 238.085 147.355 230.565 152.082C238.76 142.44 251.413 136.157 265.816 136.157C290.551 136.157 310.789 156.395 310.789 180.006C310.789 193.304 304.935 204.97 295.682 212.922C299.825 206.164 302.192 198.199 302.192 189.594ZM661.578 197.995C659.33 192.374 657.081 185.628 657.081 178.882C657.081 171.2 659.445 163.783 663.541 157.344C671.338 150.786 681.504 146.744 692.458 146.744C697.158 146.744 701.071 147.55 705.602 148.483C705.814 148.527 706.025 148.571 706.24 148.615L707.848 148.949L661.578 197.995ZM708.394 147.015C707.576 146.851 706.782 146.688 706.005 146.528C701.367 145.572 697.362 144.746 692.458 144.746C683.37 144.746 674.802 147.419 667.576 151.953C675.843 142.468 688.245 136.157 702.054 136.157C707.676 136.157 712.173 137.282 717.795 138.406L709.393 147.312L708.394 147.015ZM124.548 170.267L124.457 170.062C117.577 155.157 100.56 144.747 83.0743 144.747C73.8305 144.747 65.3129 147.291 58.1791 151.699C66.4459 142.124 78.8545 136.157 92.6703 136.157C109.486 136.157 126.3 146.219 133.085 160.767L124.548 170.267ZM83.0743 269.547C38.3682 269.547 1.99721 233.68 1.99721 189.594C1.99721 168.074 11.1243 148.338 25.8493 133.854C16.2725 146.97 10.5947 162.881 10.5947 180.006C10.5947 224.979 47.6973 260.958 92.6703 260.958C110.702 260.958 128.004 255.161 142.271 244.753L141.247 245.806C125.57 261.124 104.952 269.547 83.0743 269.547ZM255.096 270.671C236.985 270.671 219.133 264.605 204.83 253.592C190.725 242.731 180.57 227.501 176.236 210.706L176.213 210.617L184.865 201.368C193.86 236.222 226.465 262.082 264.692 262.082C282.13 262.082 298.951 256.557 312.445 246.876C297.981 261.837 276.838 270.671 255.096 270.671ZM442.366 152.843C431.748 144.155 416.961 143.103 405.821 149.249L408.605 146.276C419.849 133.909 438.962 133.909 451.33 144.028C463.697 155.271 464.822 173.26 453.578 185.628L448.662 190.544C455.848 178.34 453.617 163.069 442.366 152.843ZM425.55 267.298H377.694L385.701 258.709H433.321L425.55 267.298ZM571.737 154.034C564.99 147.287 556.013 145.871 549.669 145.871C544.836 145.871 540.273 147.09 536.02 149.515L539.027 146.276C544.649 140.655 551.395 137.282 559.265 137.282C567.135 137.282 575.005 139.53 580.627 145.152C592.995 156.395 594.119 174.384 582.876 185.628L577.877 191.043C580.714 186.538 582.175 181.319 582.045 175.873C581.849 167.653 578.177 159.886 571.737 154.034ZM555.202 267.298H508.101L516.029 258.709H563.525L555.202 267.298ZM690.21 270.671C672.098 270.671 654.246 264.605 639.943 253.592C625.917 242.791 615.803 227.67 611.429 210.986L619.978 201.368C628.973 236.222 661.578 262.082 699.806 262.082C717.974 262.082 735.405 256.204 749.734 245.646L748.382 246.931C732.706 262.248 712.087 270.671 690.21 270.671ZM861.772 270.67C843.818 270.569 826.147 264.513 811.964 253.592C797.899 242.761 787.765 227.585 783.411 210.846L792 201.368C800.791 235.432 832.137 260.89 869.239 262.027L861.772 270.67ZM861.771 145.871H826.854V137.282H869.121L861.771 145.871Z" /><path d="M962.897 0.11438H943.783L933.188 9.24127V9.70192C933.188 17.3782 930.706 24.6386 926.011 30.6984L925.773 30.9881C920.168 34.2391 913.623 36.0925 906.68 36.0925L896.086 45.2206V64.6139L897.029 64.6666C917.305 65.7929 933.188 81.6526 933.188 100.772V101.771H953.761L962.897 91.1844C962.897 85.0924 964.433 79.4133 967.122 74.4429C972.557 67.118 979.051 65.7924 990.403 65.7924H990.862L999.999 55.2062V36.0925C979.761 36.0925 962.897 19.2278 962.897 0.11438ZM952.778 61.9521C948.28 56.3303 943.783 50.7088 937.037 46.2114C940.266 44.0592 943.226 41.645 945.816 39.1008C945.839 39.0822 945.867 39.0617 945.89 39.0432L946.284 39.5362C950.13 44.3305 954.195 49.196 959.766 53.2797C957.252 55.7991 955.015 58.5969 952.778 61.9521ZM961.247 51.8743C955.459 47.7002 951.284 42.5862 947.285 37.5893C949.462 35.2735 951.335 32.875 952.778 30.4711C957.275 36.0926 961.772 41.7144 968.518 46.2115C965.768 48.0454 963.402 49.888 961.247 51.8743ZM935.183 10.1651L943.665 2.88199C942.881 13.0458 937.826 21.8884 930.306 27.8876C933.432 22.5181 935.105 16.4808 935.183 10.1651ZM906.68 38.7403V52.7082L906.187 53.2138L898.083 61.2739V46.1402L906.68 38.7403ZM899.316 62.8583L907.291 54.8829L908.008 54.1859C927.17 55.8673 942.985 70.6465 943.746 89.7458L942.871 90.6839L935.103 98.4526C933.923 80.0082 918.787 64.9328 899.316 62.8583ZM952.841 99.7737H936.606L944.695 91.6854L945.161 91.1844H960.264L952.841 99.7737ZM989.944 63.7962C982.592 63.8208 977.087 64.4587 972.56 66.9184C978.81 60.2905 987.577 55.9927 997.289 55.312L989.944 63.7962Z" /></g></svg>