<svg xmlns="http://www.w3.org/2000/svg" xmlns:xlink="http://www.w3.org/1999/xlink" viewBox="0 0 111 68" shape-rendering="geometricPrecision" text-rendering="geometricPrecision"><g fill="#0D0D0D" transform="matrix(1,0,0,1,0,0)"><path d="M19.9632 19.2887H7.72002V31.8724H0V0H21.0954V6.70221H7.72002V12.5837H19.9632V19.2887Z" /><path d="M40.4484 9.69842L39.5623 15.5936C38.4188 15.1306 37.1972 14.891 35.9635 14.8878C33.2124 14.8878 31.3145 16.573 31.3145 19.853V31.8704H25.3857V9.81058H31.1286V12.2261C32.5151 10.1525 34.6317 9.21696 37.339 9.21696C38.3957 9.19408 39.4481 9.35704 40.4484 9.69842Z" /><path d="M63.1272 20.8067C63.1291 21.4758 63.0917 22.1445 63.0151 22.8092H47.3781C48.0181 25.988 50.2468 27.3831 53.0526 27.3831C55.0989 27.3396 57.0678 26.5929 58.6286 25.2685L62.1099 29.0983C59.6076 31.3962 56.4217 32.444 52.7135 32.444C45.9534 32.444 41.2661 27.8454 41.2661 20.9025C41.2661 13.9595 45.8084 9.21875 52.41 9.21875C58.7572 9.21875 63.1053 13.9322 63.1272 20.8067ZM47.4027 18.7578H57.1546C56.6077 15.9346 54.9013 14.3398 52.3525 14.3398C49.5632 14.3398 47.9251 16.0249 47.4027 18.7578Z" /><path d="M87.3542 20.8067C87.3561 21.4758 87.3187 22.1445 87.242 22.8092H71.6078C72.245 25.9962 74.4765 27.3831 77.2741 27.3831C79.3241 27.3417 81.2971 26.5949 82.8611 25.2685L86.3423 29.0983C83.8374 31.3962 80.6542 32.444 76.9432 32.444C70.1858 32.444 65.4985 27.8454 65.4985 20.9025C65.4985 13.9595 70.0381 9.21875 76.6369 9.21875C82.9869 9.21875 87.3323 13.9322 87.3542 20.8067ZM71.6324 18.7578H81.3925C80.8456 15.9346 79.1419 14.3398 76.5904 14.3398C73.7928 14.3398 72.1548 16.0249 71.6324 18.7578Z" /><path d="M107.999 22.6671H89.625V16.7637H107.999V22.6671Z" /><path d="M35.0262 66.8052H26.1357L21.4867 48.1622L16.8378 66.8052H7.95549L0.0249023 34.9355H7.77774L12.5197 56.3088L17.5214 34.9355H25.5587L30.5604 56.3334L35.3024 34.9355H42.9595L35.0262 66.8052Z" /><path d="M66.6883 55.7642C66.6883 62.4117 61.6154 67.374 54.7404 67.374C47.8654 67.374 42.8418 62.4117 42.8418 55.7642C42.8418 49.1167 47.8928 44.1543 54.7404 44.1543C61.5881 44.1543 66.6883 49.1167 66.6883 55.7642ZM48.8937 55.7642C48.8937 59.3369 51.3986 61.8427 54.7404 61.8427C58.0822 61.8427 60.6118 59.3369 60.6118 55.7642C60.6118 52.1915 58.0877 49.6857 54.7404 49.6857C51.3932 49.6857 48.8937 52.1887 48.8937 55.7642Z" /><path d="M85.4809 44.6337L84.5921 50.5289C83.4497 50.0655 82.2288 49.8259 80.996 49.8231C78.2422 49.8231 76.3471 51.5083 76.3471 54.7882V66.8057H70.4155V44.7459H76.1748V47.1614C77.5613 45.0878 79.6779 44.1522 82.3853 44.1522C83.4373 44.131 84.485 44.2939 85.4809 44.6337Z" /><path d="M95.347 52.5993H97.4417L103.652 44.7454H110.935L102.244 55.1407L110.995 66.8189H103.696L97.3488 57.8954H95.347V66.8189H89.4072V34.0273H95.347V52.5993Z" /></g></svg>