<svg xmlns="http://www.w3.org/2000/svg" xmlns:xlink="http://www.w3.org/1999/xlink" viewBox="0 0 149 40" shape-rendering="geometricPrecision" text-rendering="geometricPrecision"><g fill="#0D0D0D" transform="matrix(1,0,0,1,0,0)"><path d="M57.1657 27.1256V34.9999H52V10.6572H57.0628V12.28C58.5066 10.911 60.4217 10.1499 62.4114 10.1543C67.4742 10.1543 71.2799 14.1086 71.2799 19.5714C71.2799 25.0342 67.5085 29.1713 62.4799 29.1713C60.5135 29.1864 58.6145 28.4553 57.1657 27.1256ZM61.7371 24.3371C62.3394 24.3296 62.9343 24.2033 63.4875 23.9652C64.0408 23.7271 64.5416 23.382 64.9611 22.9498C65.3806 22.5175 65.7105 22.0066 65.932 21.4465C66.1534 20.8863 66.2619 20.2879 66.2513 19.6857C66.273 19.0781 66.1713 18.4725 65.9526 17.9053C65.7338 17.3381 65.4025 16.8211 64.9785 16.3854C64.5546 15.9496 64.0468 15.6043 63.4858 15.3701C62.9248 15.136 62.3221 15.0178 61.7142 15.0229C61.1012 15.0048 60.491 15.1137 59.9221 15.3429C59.3532 15.572 58.8379 15.9164 58.4086 16.3543C57.9792 16.7923 57.6451 17.3143 57.4273 17.8876C57.2094 18.4609 57.1126 19.0731 57.1428 19.6857C57.1226 20.2952 57.2265 20.9025 57.448 21.4707C57.6696 22.0388 58.0042 22.5561 58.4317 22.9911C58.8592 23.426 59.3706 23.7696 59.9348 24.001C60.4991 24.2324 61.1044 24.3467 61.7142 24.3371H61.7371Z" /><path d="M76.0722 10.6572L80.1065 21.1143L84.095 10.6572H89.695L79.4093 34.9999H74.1179L77.4665 27.16L70.6094 10.6572H76.0722Z" /><path d="M95.7594 28.657H90.5938V3H95.7594V28.657Z" /><path d="M97.5005 19.6413C97.4914 17.7448 98.0457 15.8882 99.093 14.307C100.14 12.7258 101.634 11.4912 103.383 10.7597C105.133 10.0281 107.061 9.83258 108.922 10.1979C110.783 10.5631 112.494 11.4728 113.837 12.8115C115.181 14.1502 116.097 15.8576 116.469 17.7174C116.84 19.5771 116.652 21.5055 115.927 23.2579C115.201 25.0104 113.972 26.508 112.395 27.561C110.817 28.614 108.963 29.1749 107.066 29.1727C105.808 29.1895 104.56 28.9547 103.394 28.4821C102.228 28.0095 101.168 27.3086 100.277 26.4206C99.3857 25.5326 98.681 24.4755 98.2042 23.3113C97.7274 22.1471 97.4882 20.8993 97.5005 19.6413ZM107.066 24.407C107.683 24.4076 108.294 24.2832 108.862 24.0414C109.429 23.7996 109.942 23.4454 110.369 23.0001C110.796 22.5549 111.129 22.0277 111.347 21.4505C111.565 20.8732 111.664 20.2578 111.637 19.6413C111.73 18.9931 111.682 18.3325 111.497 17.7044C111.312 17.0763 110.994 16.4953 110.565 16.0007C110.136 15.5061 109.605 15.1094 109.01 14.8376C108.414 14.5657 107.767 14.4251 107.112 14.4251C106.457 14.4251 105.81 14.5657 105.214 14.8376C104.618 15.1094 104.088 15.5061 103.659 16.0007C103.23 16.4953 102.912 17.0763 102.727 17.7044C102.542 18.3325 102.494 18.9931 102.586 19.6413C102.56 20.2502 102.656 20.8581 102.868 21.4293C103.081 22.0005 103.405 22.5235 103.823 22.9675C104.24 23.4116 104.742 23.7676 105.299 24.0148C105.856 24.2621 106.457 24.3954 107.066 24.407Z" /><path d="M116.812 10.6564H120.07V5.9707H125.201V10.6564H129.772V15.1021H125.201V21.8449C125.155 22.1583 125.181 22.4781 125.279 22.7795C125.376 23.0809 125.542 23.3557 125.764 23.5825C125.985 23.8092 126.255 23.9818 126.554 24.0868C126.853 24.1918 127.172 24.2263 127.487 24.1877H129.772V28.6563H126.801C122.401 28.6563 120.092 26.6106 120.092 22.2106V15.1021H116.812V10.6564Z" /><path d="M130.301 19.8233C130.285 17.284 131.276 14.8419 133.055 13.0303C134.835 11.2187 137.259 10.1849 139.798 10.1548C140.97 10.1269 142.136 10.3362 143.226 10.77C144.315 11.2038 145.306 11.8532 146.139 12.6793C146.971 13.5053 147.628 14.4911 148.07 15.5773C148.513 16.6635 148.731 17.8278 148.712 19.0005C148.712 19.6889 148.663 20.3764 148.563 21.0576H135.329C135.495 22.1476 136.048 23.1412 136.888 23.8553C137.728 24.5693 138.798 24.9557 139.901 24.9433C140.607 24.9847 141.31 24.8157 141.92 24.4576C142.53 24.0996 143.021 23.5686 143.329 22.9319H148.426C147.581 26.3604 144.312 29.229 139.512 29.229C138.283 29.2387 137.065 29.0006 135.93 28.5289C134.795 28.0572 133.767 27.3615 132.908 26.4836C132.048 25.6056 131.374 24.5633 130.926 23.4189C130.478 22.2746 130.265 21.0517 130.301 19.8233ZM143.421 17.3319C143.299 16.4616 142.853 15.6691 142.174 15.1122C141.494 14.5552 140.629 14.2746 139.752 14.3262C138.827 14.316 137.923 14.6023 137.172 15.1432C136.421 15.684 135.864 16.4511 135.581 17.3319H143.421Z" /><path d="M33.3333 0H6.66667C2.98477 0 0 2.98477 0 6.66667V33.3333C0 37.0152 2.98477 40 6.66667 40H33.3333C37.0152 40 40 37.0152 40 33.3333V6.66667C40 2.98477 37.0152 0 33.3333 0Z" /></g><g fill="#f5f5f5" transform="matrix(1,0,0,1,0,0)"><path d="M17.5004 17.5004H13.5254C12.7487 17.4938 11.9912 17.2579 11.3482 16.8222C10.7051 16.3866 10.2051 15.7707 9.91086 15.0518C9.61666 14.3329 9.54142 13.5432 9.69457 12.7817C9.84772 12.0202 10.2224 11.3209 10.7717 10.7717C11.3209 10.2224 12.0202 9.84772 12.7817 9.69457C13.5432 9.54142 14.3329 9.61666 15.0518 9.91086C15.7707 10.2051 16.3866 10.7051 16.8222 11.3482C17.2579 11.9912 17.4938 12.7487 17.5004 13.5254V17.5004ZM13.5587 11.0254C12.8868 11.0254 12.2425 11.2923 11.7674 11.7674C11.2923 12.2425 11.0254 12.8868 11.0254 13.5587C11.0254 14.2306 11.2923 14.875 11.7674 15.3501C12.2425 15.8251 12.8868 16.092 13.5587 16.092H16.0587V13.592C16.0723 13.2526 16.0166 12.9139 15.895 12.5967C15.7734 12.2795 15.5884 11.9905 15.3513 11.7471C15.1142 11.5038 14.83 11.3114 14.5161 11.1815C14.2022 11.0517 13.8651 10.9872 13.5254 10.992L13.5587 11.0254Z" /><path d="M26.475 17.5004H22.5V13.5254C22.5066 12.7487 22.7425 11.9912 23.1782 11.3482C23.6138 10.7051 24.2297 10.2051 24.9486 9.91086C25.6675 9.61666 26.4572 9.54142 27.2187 9.69457C27.9802 9.84772 28.6795 10.2224 29.2287 10.7717C29.7779 11.3209 30.1527 12.0202 30.3058 12.7817C30.459 13.5432 30.3837 14.3329 30.0895 15.0518C29.7953 15.7707 29.2953 16.3866 28.6522 16.8222C28.0092 17.2579 27.2517 17.4938 26.475 17.5004ZM23.975 16.092H26.475C26.808 16.094 27.138 16.0294 27.4457 15.902C27.7533 15.7746 28.0325 15.5871 28.2667 15.3504C28.5034 15.1162 28.6909 14.8371 28.8183 14.5294C28.9456 14.2217 29.0103 13.8917 29.0083 13.5587C29.0083 12.8868 28.7414 12.2425 28.2663 11.7674C27.7912 11.2923 27.1469 11.0254 26.475 11.0254C25.8031 11.0254 25.1588 11.2923 24.6837 11.7674C24.2086 12.2425 23.9417 12.8868 23.9417 13.5587L23.975 16.092Z" /><path d="M23.2328 16.0586H16.7578V17.4669H23.2328V16.0586Z" /><path d="M23.9396 16.7588H22.5312V23.2338H23.9396V16.7588Z" /><path d="M23.2328 22.5332H16.7578V23.9415H23.2328V22.5332Z" /><path d="M17.463 16.7588H16.0547V23.2338H17.463V16.7588Z" /><path d="M13.5276 30.4165C12.4822 30.4165 11.4796 30.0013 10.7404 29.2621C10.0012 28.5228 9.58594 27.5203 9.58594 26.4749C9.58594 25.4295 10.0012 24.4269 10.7404 23.6877C11.4796 22.9485 12.4822 22.5332 13.5276 22.5332H17.5026V26.4749C17.5026 26.9953 17.3996 27.5106 17.1994 27.991C16.9992 28.4714 16.7059 28.9074 16.3364 29.2739C15.9668 29.6404 15.5283 29.93 15.0463 30.1261C14.5642 30.3222 14.048 30.4209 13.5276 30.4165ZM13.5276 23.9415C13.0332 23.9415 12.5498 24.0882 12.1387 24.3629C11.7276 24.6376 11.4071 25.028 11.2179 25.4848C11.0287 25.9416 10.9792 26.4443 11.0756 26.9293C11.1721 27.4142 11.4102 27.8597 11.7598 28.2093C12.1095 28.5589 12.5549 28.797 13.0399 28.8935C13.5248 28.99 14.0275 28.9405 14.4843 28.7512C14.9411 28.562 15.3316 28.2416 15.6063 27.8305C15.881 27.4193 16.0276 26.936 16.0276 26.4415V23.9415H13.5276Z" /><path d="M26.475 30.4167C25.9546 30.4211 25.4384 30.3224 24.9563 30.1262C24.4743 29.9301 24.0358 29.6405 23.6662 29.274C23.2967 28.9076 23.0034 28.4716 22.8032 27.9911C22.603 27.5107 22.5 26.9954 22.5 26.475V22.5H26.4417C27.4871 22.5 28.4896 22.9153 29.2288 23.6545C29.9681 24.3937 30.3833 25.3963 30.3833 26.4417C30.3833 27.4871 29.9681 28.4896 29.2288 29.2288C28.4896 29.9681 27.4871 30.3833 26.4417 30.3833L26.475 30.4167ZM23.975 23.9417V26.4417C23.9731 26.7747 24.0377 27.1047 24.165 27.4123C24.2924 27.72 24.48 27.9991 24.7167 28.2333C25.0641 28.6051 25.5168 28.862 26.0141 28.9696C26.5114 29.0773 27.0298 29.0307 27.4999 28.8359C27.97 28.6412 28.3695 28.3076 28.645 27.8798C28.9205 27.4519 29.0589 26.9502 29.0417 26.4417C29.0417 25.7786 28.7783 25.1427 28.3094 24.6739C27.8406 24.2051 27.2047 23.9417 26.5417 23.9417H23.975Z" /></g></svg>